<svg xmlns="http://www.w3.org/2000/svg" viewBox="0 0 1262.2 325.3" style="enable-background:new 0 0 1262.2 325.3" xml:space="preserve"><path d="m257.3 89.9 13 .2 35.2-35.2 1.7-14.9c-28-24.9-64.8-40-105-40-73 0-134.5 49.6-152.7 116.8 3.8-2.7 12-.7 12-.7l70.3-11.5s3.6-6 5.4-5.6c16.1-17.6 39.2-28.7 64.9-28.7 20.9 0 40.1 7.3 55.2 19.6z" style="fill:#ea4335"/><path d="M354.9 116.9c-8.2-30.1-25-56.7-47.7-76.9l-49.8 49.9c20 16.1 32.8 40.8 32.8 68.4v8.8c24.2 0 44 19.7 44 44s-19.7 43.9-44 43.9h-87.9l-8.8 8.8v52.8l8.8 8.8H290c63 0 114.3-51.3 114.3-114.3 0-39.1-19.6-73.5-49.4-94.2z" style="fill:#4285f4"/><path d="M114.3 325.2h87.8v-70.3h-87.8c-6.5 0-12.6-1.4-18.1-3.9l-12.7 3.9-35.2 35.2-3.1 11.9c19.3 14.5 43.2 23.2 69.1 23.2z" style="fill:#34a853"/><path d="M114.3 96.7C51.3 96.7 0 148 0 211c0 37.1 17.8 70.1 45.3 91l51-51c-15.3-6.9-25.9-22.2-25.9-40 0-24.2 19.7-44 44-44 17.8 0 33.1 10.6 40 25.9l51-51c-21-27.4-54-45.2-91.1-45.2z" style="fill:#fbbc05"/><path d="M560.4 306.5V150.9h53.9c7 0 13.5 1.2 19.7 3.5 6.1 2.3 11.5 5.6 16.2 9.8 4.6 4.2 8.3 9.3 11 15.1 2.7 5.8 4 12.4 4 19.4s-1.3 13.4-4 19.2c-2.7 5.9-6.3 10.9-11 15.1-4.6 4.2-10 7.5-16.2 9.8-6.1 2.3-12.7 3.5-19.7 3.5H585v60.2h-24.6zm54.5-83.7c4.1 0 7.7-.7 10.9-2.1 3.2-1.4 5.9-3.2 8.1-5.5 2.2-2.3 3.8-4.9 5-7.8 1.1-2.9 1.7-5.8 1.7-8.7 0-3-.6-6-1.7-8.9-1.2-2.9-2.8-5.5-5-7.7s-4.8-4.1-8.1-5.5c-3.2-1.4-6.8-2.2-10.9-2.2h-30v48.4h30zm131.2 70.7h-1.3c-3.2 4.2-7.3 8-12.4 11.4-5.1 3.4-11.5 5.1-19.3 5.1-5.7 0-10.9-.9-15.9-2.7-4.9-1.8-9.2-4.4-12.8-7.6-3.6-3.3-6.5-7.1-8.6-11.5-2.1-4.4-3.2-9.3-3.2-14.7 0-5.7 1.1-10.7 3.4-15.2 2.2-4.5 5.4-8.2 9.3-11.3 4-3 8.7-5.4 14.2-7 5.5-1.7 11.4-2.5 17.8-2.5 7.1 0 13 .7 17.8 2.1 4.8 1.4 8.4 2.6 10.9 3.8v-4.1c0-3.2-.7-6.1-2.1-8.9-1.4-2.8-3.3-5.1-5.7-7-2.4-2-5.1-3.5-8.1-4.6-3-1.1-6.2-1.6-9.6-1.6-5.4 0-10.2 1.1-14.4 3.2-4.3 2.1-8.1 5.5-11.4 10.1l-19.1-12.6c5.1-7 11.4-12.2 18.9-15.8 7.5-3.5 16.1-5.3 25.6-5.3 15.8 0 28 3.9 36.6 11.7 8.6 7.8 12.9 19 12.9 33.5v64.7h-23.7l.2-13.2zm0-31.3c-3.2-1.9-6.7-3.4-10.6-4.6-3.9-1.1-8.4-1.7-13.5-1.7-7.5 0-13.5 1.7-18 5.2s-6.7 7.7-6.7 12.6c0 2.6.6 4.9 1.7 6.9s2.6 3.7 4.5 5.1c1.8 1.4 3.9 2.5 6.3 3.3 2.4.7 4.8 1.1 7.3 1.1 3.9 0 7.6-.8 11.2-2.3 3.5-1.5 6.6-3.5 9.3-6.1 2.6-2.5 4.7-5.5 6.3-8.8 1.4-3.3 2.2-6.9 2.2-10.7zm68-44.4h1.3c2.9-6.1 7.3-10.8 13.1-14.1 5.9-3.3 12.4-5 19.4-5 2.3 0 4 .1 5.1.2 1.1.1 2.2.4 3.4.7V224c-1.6-.6-3.2-1-4.7-1.2-1.5-.2-3.5-.3-6-.3-9.1 0-16.5 2.8-22 8.4-5.6 5.6-8.4 12.9-8.4 22v55.4h-24.1V201.8H814l.1 16zm75 3.5h-18.7V200h18.7v-32.6h24.1V200h26.3v21.3h-26.3V270c0 2.7.3 5.1.9 7.4.6 2.2 1.4 4.1 2.6 5.6 2.5 2.8 5.6 4.2 9.3 4.2 2.3 0 4.1-.2 5.4-.5 1.3-.4 2.7-.9 4.1-1.6l7.4 21.3c-3 1.1-6.2 2.1-9.6 2.7-3.3.7-7.1 1-11.3 1-5.1 0-9.6-.8-13.5-2.4-3.9-1.6-7.3-3.8-10.2-6.6-6.2-6.4-9.3-15-9.3-25.9l.1-53.9zm90.3-6.9h1.3c3.2-5.1 7.7-9.3 13.6-12.7 5.9-3.4 12.5-5.1 19.9-5.1 13.5 0 23.5 4 30.2 12.1 6.7 8.1 10 18.7 10 32.1v65.9h-24.1V244c0-9.3-2.1-15.8-6.4-19.4-4.3-3.7-9.9-5.5-16.8-5.5-4.2 0-7.9.9-11.1 2.6-3.2 1.7-6 4.1-8.2 7-2.3 3-4.1 6.4-5.2 10.2-1.2 3.8-1.7 7.9-1.7 12.1v55.6h-24.1V200.1h22.8l-.2 14.3zm194.4 66.7c-4.5 8.2-10.9 15.2-19.1 20.6-8.2 5.5-18.4 8.2-30.4 8.2-8 0-15.3-1.4-22-4.2-6.7-2.8-12.6-6.8-17.5-11.8-4.9-5.1-8.8-11-11.5-17.9-2.8-6.9-4.1-14.4-4.1-22.7 0-7.7 1.3-15 3.9-21.8 2.6-6.9 6.3-12.9 11-18s10.4-9.3 17.1-12.3c6.7-3 14-4.6 22.2-4.6 8.1 0 15.6 1.4 22 4.1s11.9 6.6 16.4 11.5c4.5 4.9 7.9 10.9 10.3 17.8 2.4 7 3.6 14.6 3.6 22.8v2c-.1.7-.2 1.4-.2 2-.1.6-.2 1.2-.2 1.7h-81.9c.4 5.1 1.7 9.5 3.7 13.3 2 3.8 4.5 6.9 7.5 9.3s6.3 4.3 9.9 5.4c3.6 1.2 7.2 1.7 10.6 1.7 7 0 12.7-1.7 17.2-5s8.2-7.5 11.1-12.4l20.4 10.3zm-22.3-41.1c-.3-2.2-1-4.6-2.1-7.3s-2.8-5.1-5-7.4c-2.2-2.2-5.1-4.2-8.7-5.8-3.6-1.6-7.9-2.4-12.9-2.4-7 0-12.9 2.1-17.9 6.2-5 4.1-8.4 9.7-10.1 16.6h56.7zm40.1-40h22.8v16.1h1.3c1.3-2.8 3.1-5.3 5.3-7.7 2.2-2.4 4.8-4.4 7.6-6.1 2.8-1.7 5.8-3 8.9-4.1 3.1-1.1 6.1-1.6 9-1.6 3.5 0 6.4.4 8.9 1 2.5.7 4.7 1.6 6.7 2.7l-7 22c-1.6-.7-3.4-1.3-5.3-1.6-2-.4-4.3-.5-7-.5-3.9 0-7.5.8-10.8 2.4-3.3 1.6-6.1 3.8-8.6 6.5-2.5 2.8-4.4 6-5.8 9.8-1.4 3.8-2.1 7.8-2.1 12v55.7h-24.1l.2-106.6zM621.7 57.6c0 8.5-2.5 15.2-7.5 20.2-5.7 6-13.1 9-22.3 9-9.2 0-16.3-3-22.4-9.1s-9.1-13.6-9.1-22.5 3-16.4 9.1-22.5 13.6-9.1 22.4-9.1c4.5 0 8.7.8 12.6 2.4 4 1.6 7.2 3.8 9.7 6.7l-5.6 5.6c-1.9-2.3-4.3-4-7.2-5.3-3-1.3-6.1-1.9-9.5-1.9-6.6 0-12.2 2.3-16.8 6.9-4.5 4.6-6.8 10.4-6.8 17.4s2.3 12.7 6.8 17.4c4.6 4.6 10.2 6.9 16.8 6.9 6 0 11.1-1.7 15.1-5.1s6.3-8 6.9-14h-22v-7.3h29.4c.3 1.4.4 2.9.4 4.3zm5.4 7.1c0-6.4 2-11.7 6-15.8 4.1-4.2 9.2-6.3 15.3-6.3s11.2 2.1 15.2 6.3c4.1 4.2 6.1 9.5 6.1 15.8s-2 11.7-6.1 15.8c-4 4.2-9.1 6.3-15.2 6.3s-11.3-2.1-15.3-6.3c-4-4.1-6-9.4-6-15.8zm7.7 0c0 4.5 1.3 8.1 3.9 10.8 2.6 2.8 5.8 4.2 9.7 4.2s7.1-1.4 9.7-4.2c2.6-2.8 3.9-6.4 3.9-10.8 0-4.5-1.3-8-3.9-10.7-2.6-2.8-5.9-4.2-9.7-4.2-3.8 0-7 1.4-9.7 4.2-2.5 2.8-3.9 6.3-3.9 10.7zm39.7 0c0-6.4 2-11.7 6-15.8 4.1-4.2 9.2-6.3 15.3-6.3s11.2 2.1 15.2 6.3c4.1 4.2 6.1 9.5 6.1 15.8s-2 11.7-6.1 15.8c-4 4.2-9.1 6.3-15.2 6.3s-11.3-2.1-15.3-6.3c-4-4.1-6-9.4-6-15.8zm7.8 0c0 4.5 1.3 8.1 3.9 10.8 2.6 2.8 5.8 4.2 9.7 4.2 3.8 0 7.1-1.4 9.7-4.2 2.6-2.8 3.9-6.4 3.9-10.8 0-4.5-1.3-8-3.9-10.7-2.6-2.8-5.9-4.2-9.7-4.2-3.8 0-7 1.4-9.7 4.2-2.6 2.8-3.9 6.3-3.9 10.7zm60.3 40.4c-2.3 0-4.5-.3-6.5-.9-2-.6-3.9-1.4-5.6-2.5-1.7-1.1-3.1-2.3-4.3-3.8-1.2-1.5-2.1-3.1-2.7-4.9l7.4-3c.8 2.4 2.3 4.4 4.4 5.8 2.1 1.5 4.5 2.2 7.3 2.2 4.2 0 7.5-1.3 9.9-3.8 2.4-2.5 3.6-6 3.6-10.5v-4h-.3c-1.5 2.2-3.5 3.9-6 5.2-2.5 1.3-5.2 1.9-8.2 1.9-5.4 0-10.1-2.1-14-6.4-3.8-4.3-5.8-9.6-5.8-15.8s1.9-11.4 5.8-15.7c3.9-4.3 8.5-6.4 14-6.4 2.9 0 5.7.6 8.2 1.9 2.5 1.3 4.5 3 6 5.2h.3V44h7.5v39.7c0 6.7-1.9 11.9-5.7 15.7-3.9 3.8-8.9 5.7-15.3 5.7zm.3-25.4c3.8 0 7-1.4 9.4-4.2 2.5-2.8 3.8-6.4 3.8-10.8 0-4.5-1.3-7.9-3.8-10.7-2.5-2.8-5.6-4.2-9.4-4.2s-6.9 1.4-9.4 4.2c-2.5 2.8-3.8 6.4-3.8 10.7s1.3 8 3.8 10.7c2.5 2.9 5.7 4.3 9.4 4.3zm37.9-54.8v60.6H773V24.9h7.8zm27.7 61.9c-6.1 0-11.1-2.1-15.1-6.3-4-4.2-5.9-9.5-5.9-15.8s1.9-11.6 5.8-15.8c3.8-4.2 8.7-6.3 14.7-6.3s11 2 14.7 6c3.6 4 5.5 9.6 5.5 16.7l-.1.8h-32.6c.1 4.1 1.5 7.3 4.1 9.8 2.6 2.5 5.7 3.7 9.3 3.7 5 0 8.9-2.5 11.7-7.5l6.9 3.4c-1.9 3.5-4.4 6.2-7.8 8.2s-7 3.1-11.2 3.1zm-12.4-27.1h23.8c-.2-2.9-1.4-5.3-3.5-7.2-2.1-1.9-5-2.8-8.5-2.8-2.9 0-5.5.9-7.6 2.7s-3.5 4.3-4.2 7.3zm86 27.1c-9 0-16.5-3-22.5-9.1-6-6-9-13.6-9-22.6 0-9 3-16.5 9-22.5 6-6.1 13.5-9.1 22.5-9.1s16.6 3.3 22.3 9.9l-5.6 5.4c-4.3-5.3-9.9-7.9-16.7-7.9-6.8 0-12.3 2.3-16.9 6.8-4.5 4.5-6.7 10.3-6.7 17.4s2.2 13 6.7 17.4c4.5 4.5 10.1 6.8 16.9 6.8 7.1 0 13.2-3 18.4-8.9l5.7 5.5c-2.9 3.4-6.4 6.1-10.6 8-4.2 2-8.7 2.9-13.5 2.9zm38.8-61.9v60.6h-7.8V24.9h7.8zm6.7 39.8c0-6.4 2-11.7 6-15.8 4.1-4.2 9.2-6.3 15.3-6.3s11.2 2.1 15.2 6.3c4.1 4.2 6.1 9.5 6.1 15.8s-2 11.7-6.1 15.8c-4 4.2-9.1 6.3-15.2 6.3s-11.3-2.1-15.3-6.3c-4-4.1-6-9.4-6-15.8zm7.8 0c0 4.5 1.3 8.1 3.9 10.8 2.6 2.8 5.8 4.2 9.7 4.2 3.8 0 7.1-1.4 9.7-4.2 2.6-2.8 3.9-6.4 3.9-10.8 0-4.5-1.3-8-3.9-10.7-2.6-2.8-5.9-4.2-9.7-4.2-3.8 0-7 1.4-9.7 4.2-2.6 2.8-3.9 6.3-3.9 10.7zm78 20.8h-7.5v-5.8h-.3c-1.2 2-3 3.7-5.5 5.1-2.4 1.4-5 2-7.7 2-5.1 0-9-1.5-11.7-4.4-2.7-2.9-4.1-7-4.1-12.4V44h7.8v25.6c.2 6.8 3.6 10.2 10.3 10.2 3.1 0 5.7-1.3 7.8-3.8 2.1-2.5 3.1-5.5 3.1-9V44h7.8v41.5zm26.4 1.3c-5.4 0-10.1-2.1-14-6.4-3.8-4.3-5.8-9.6-5.8-15.7s1.9-11.3 5.8-15.7c3.9-4.3 8.5-6.4 14-6.4 3 0 5.8.6 8.3 2 2.5 1.3 4.4 3 5.8 5.2h.3l-.3-5.8V24.9h7.8v60.6h-7.5v-5.8h-.3c-1.4 2.1-3.3 3.9-5.8 5.2-2.5 1.3-5.3 1.9-8.3 1.9zm1.3-7.1c3.8 0 7-1.4 9.4-4.2 2.5-2.8 3.8-6.4 3.8-10.8 0-4.5-1.3-7.9-3.8-10.7-2.5-2.8-5.6-4.2-9.4-4.2-3.8 0-6.9 1.4-9.4 4.2-2.5 2.8-3.8 6.4-3.8 10.7s1.3 8 3.8 10.7c2.5 2.9 5.6 4.3 9.4 4.3z" style="fill:#737373"/></svg>