<svg version="1.1" id="Layer_1" xmlns="http://www.w3.org/2000/svg" x="0" y="0" viewBox="0 0 1465.6 308.7" style="enable-background:new 0 0 1465.6 308.7" xml:space="preserve"><style>.st4{fill-rule:evenodd;clip-rule:evenodd;fill:#737373}</style><path d="M209 263.6c-15.1-15.1-15.1-39.5 0-54.6-30.2 30.2-79 30.2-109.2 0 15.1 15.1 15.1 39.5 0 54.6-15.1 15.1-39.5 15.1-54.6 0 60.2 60.2 158.2 60.2 218.4 0-15.1 15-39.6 15-54.6 0z" style="fill:#fbbc04"/><path d="M263.6 45.2C203.4-15 105.4-15 45.2 45.2s-60.2 158.2 0 218.4c-15.1-15.1-15.1-39.5 0-54.6 15.1-15.1 39.5-15.1 54.6 0-30.2-30.2-30.2-79 0-109.2s79-30.2 109.2 0c15.1 15.1 39.5 15.1 54.6 0 15-15.1 15-39.6 0-54.6z" style="fill:#4184f3"/><circle cx="72.5" cy="236.3" r="38.6" style="fill:#34a853"/><path d="M263.6 45.2c15.1 15.1 15.1 39.5 0 54.6-15.1 15.1-39.5 15.1-54.6 0 30.2 30.2 30.2 79 0 109.2-15.1 15.1-15.1 39.5 0 54.6 15.1 15.1 39.5 15.1 54.6 0 60.2-60.2 60.2-158.2 0-218.4z" style="fill:#ea4335"/><path id="Fill-2" class="st4" d="M469.1 93.1c0-9-6.6-15.2-13.9-15.2-7.4 0-13.9 6.2-13.9 15.2s6.5 15.2 13.9 15.2 13.9-6.1 13.9-15.2m10.6 0c0 14.3-11.1 25-24.6 25-13.5 0-24.6-10.7-24.6-25s11.1-25 24.6-25c13.6.4 24.6 10.7 24.6 25"/><path id="Fill-4" class="st4" d="M522.7 93.1c0-9-6.5-15.2-13.9-15.2s-13.9 6.2-13.9 15.2 6.5 15.2 13.9 15.2 13.9-6.1 13.9-15.2m10.7 0c0 14.3-11.1 25-24.6 25-13.5 0-24.6-10.7-24.6-25s11.1-25 24.6-25c13.5.4 24.6 10.7 24.6 25"/><path id="Fill-6" class="st4" d="M575.5 93.5c0-8.6-5.7-15.2-13.1-15.2s-13.5 6.6-13.5 15.2 6.1 15.2 13.5 15.2c7.4-.4 13.1-6.5 13.1-15.2zm9.4-23.7v44.7c0 18.4-10.6 25.8-23.3 25.8-11.9 0-19.2-8.2-21.7-14.8l9.4-4.1c1.6 4.1 5.7 9 12.3 9 8.2 0 13.1-4.9 13.1-14.8V112h-.4c-2.5 2.9-7 5.7-13.1 5.7-12.3 0-23.7-10.7-23.7-24.6s11.5-25 23.7-25c5.7 0 10.6 2.5 13.1 5.7h.4v-4.1l10.2.1z"/><path id="Fill-8" class="st4" d="M592.3 116.9h10.6V43.5h-10.6z"/><path id="Fill-10" class="st4" d="m618.5 92.7 22.1-9.4c-1.2-3.3-4.9-5.3-9-5.3-6.2 0-13.5 4.9-13.1 14.7m25.8 8.6 8.6 5.7c-2.9 4.1-9 11.1-20.5 11.1-13.9 0-24.1-10.6-24.1-24.6 0-14.8 10.2-25 22.9-25s19.2 10.2 21.3 15.6l1.2 2.9-32.7 13.9c2.5 4.9 6.5 7.4 11.9 7.4 4.8 0 8.5-2.9 11.4-7"/><path id="Fill-11" class="st4" d="M391.3 118.1c-20.9 0-38.9-17.2-38.9-38.5s17.6-38.5 38.9-38.5c11.5 0 20.1 4.5 26.2 10.7l-7.4 7.4c-4.5-4.1-10.6-7.4-18.8-7.4-15.1 0-27.4 12.7-27.4 28.3 0 15.6 11.9 28.3 27.4 28.3 9.8 0 15.6-4.1 19.2-7.8 2.9-2.9 4.9-7.4 5.7-13.5h-25V76.3h35.2c.4 2 .4 4.1.4 6.6 0 7.8-2 17.6-9 24.6-6.4 6.9-15 10.6-26.5 10.6"/><path id="Fill-12" class="st4" d="M738 46.4c-7.8 13.9-16 27.9-24.1 41.8-7.8-13.9-16-27.9-23.7-41.8-2.9 0-6.1-.4-9 0-.4 22.9 0 45.9 0 68.8h9c0-17.2 0-34.8-.4-52 6.9 12.7 14.3 25 21.3 37.3h6.1c7-12.3 14.3-25 21.3-37.3-.4 17.2 0 34.8-.4 52.4h9V46.8c-3-.4-5.8-.4-9.1-.4"/><path id="Fill-13" class="st4" d="M883.7 68.1h-11.5c-6.9 6.6-13.5 13.5-20.5 20.5V46.4h-9.4v68.8h9.4c0-4.9-.4-9.8 0-14.3 1.6-2.9 4.5-4.9 7-7.4 4.9 7.4 9.8 14.8 14.7 21.7h11.1c-6.5-9.4-13.1-18.9-19.2-28.3 6.1-6.5 12.6-12.2 18.4-18.8"/><path id="Fill-14" class="st4" d="M974.1 46.4c-4.5 2.5-4.1 9.8.8 11.5 2.5.4 5.3.4 6.9-1.2 2-2 2-5.7.8-8.2-1.5-2.9-6-3.7-8.5-2.1"/><path id="Fill-15" class="st4" d="M1148.9 78.8c-5.3.4-11.1 0-16.4.4V55.4c5.3 0 11.1-.4 16.4 0 5.3.4 9.4 5.3 10.2 10.2.8 5.8-4.1 12.4-10.2 13.2m-2.1-32.4h-23.7v68.8h9V87.4h16.4c6.6-.4 12.7-4.1 16.4-9.4 4.5-7 4.1-16.4-.8-22.9-3.8-5.8-10.3-8.7-17.3-8.7"/><path id="Fill-16" class="st4" d="M1175.9 46.4c-.4 22.9 0 45.9 0 68.8h9V46.4c-3.3 0-6.2-.4-9 0"/><path id="Fill-17" class="st4" d="M1288.4 67.7c0-3.3-.4-8.6 1.6-11.1 2.9-3.3 6.6-2.5 10.6-2 .8-2.5 2-4.9 2.9-7.4-4.1-.8-7.8-1.6-11.9-.4-5.7 1.2-10.6 5.3-11.9 11.1-.4 3.3-.4 7-.4 10.6h-21.7V54.2h-9v14.3h-8.2v8.2c2.9 0 5.7.4 8.2.4V103c0 4.5 2 9 6.1 11.5 5.3 2.9 10.6 2.5 16.4.8-1.2-2.5-2-5.3-3.3-7.8-2.5.4-4.5 1.2-6.9 0-2.5-1.2-3.3-3.3-3.3-5.7v-25c7-.4 14.3-.4 21.7 0 .4 12.7 0 25.8.4 38.5h9V83.7c0-2.5 0-4.9.4-7.4h12.3c0-2.9-.4-5.3-.4-8.2-4.4 0-8.5 0-12.6-.4"/><path id="Fill-18" class="st4" d="M954.5 107.1c-1.2-2.5-2.5-4.9-2-7.4V76.3h11.1v-8.2h-11.1V53.8h-9v14.3h-8.2v8.2c2.9 0 5.7.4 8.2.4v25c0 4.9 1.2 9 5.7 11.9 5.3 3.3 11.1 2.9 16.8 1.6-.8-2.5-2-4.9-2.9-7.8-3.3.1-5.8.1-8.6-.3"/><path id="Fill-19" class="st4" d="M785 104.2c-4.5 4.5-13.1 5.7-17.6 1.6-2-1.6-2-4.9-1.2-7.4 1.2-3.3 4.1-5.3 7.4-6.2 5.7-1.2 11.1-.4 16.4 2.5-.9 3.8-2.1 7-5 9.5m7-32.4c-3.3-2.9-7.8-4.9-12.7-4.9-4.9-.4-9.4 0-13.5 2.5-3.7 2-6.1 5.3-8.6 8.6 2.9 1.2 5.3 2.5 8.2 3.7 1.2-1.6 2.9-3.7 4.9-4.9 5.3-3.3 13.1-2 16.8 3.3 1.6 2.5 1.6 4.5 2 7.4-6.1-2.5-12.7-2.9-19.2-2-4.9.8-9.8 3.7-12.3 7.8-3.7 6.2-2.5 15.2 3.3 19.7 4.9 4.1 11.5 4.5 17.6 3.3 4.5-.8 7.4-3.7 10.6-7v6.2h8.6V86.6c.4-5.8-1.6-11.1-5.7-14.8"/><path id="Fill-20" class="st4" d="M894.3 85.8c1.2-2.9 2.5-5.3 4.5-7.4 5.3-5.3 15.5-4.5 20 1.2 1.2 1.6 2 4.1 2.5 6.2h-27zm36.9 7.3c0-6.2-.4-11.9-3.7-16.8-4.1-6.6-11.5-10.2-19.2-9.8-11.1-.8-19.6 7.8-22.5 17.6-1.6 6.6-1.2 14.3 2.5 20.5 3.3 6.6 9.8 11.1 17.2 11.5 5.7.4 11.1.4 16-2.9 4.1-2.5 6.6-5.7 8.6-9.8-2.5-1.2-5.3-2-7.8-2.9-2 2.9-3.3 5.3-7 6.6-5.3 2-12.3 1.2-16.4-3.3-3.3-2.9-4.1-6.6-4.5-10.7h36.8z"/><path id="Fill-21" class="st4" d="M1028.5 69.8c-4.5-3.7-9.8-3.7-15.6-2.9-4.9.8-7.8 4.1-11.1 7.4 0-2 .4-4.1.4-6.2h-9v47.1h9V88.6c0-5.3 3.3-11.1 8.2-13.1 4.1-1.2 9.4-.8 12.3 2.5 2.9 3.3 2.9 7.4 2.9 11.5v25.8h9V86.6c.9-6.6-.7-12.7-6.1-16.8"/><path id="Fill-22" class="st4" d="M1075.6 104.6c-4.5 4.5-12.7 4.9-17.6 1.2-9.8-6.6-9-24.6 2-29.9 7.4-3.7 16.4 0 19.2 7.4 2.5 7 2.1 16.4-3.6 21.3m13.5-36.9h-8.6v6.6c-2.9-2.9-5.3-5.7-9.4-7-7-2-15.1-1.2-20.5 4.1-8.6 7-10.2 18.4-7.4 28.7 2.5 7.4 8.2 13.5 15.6 15.6 4.9.8 11.1.8 15.1-1.6 2.5-1.2 4.5-3.3 6.5-5.3 0 4.5.4 9-2 13.1-3.7 7-13.9 9.4-20.9 5.3-2.9-1.6-4.1-4.1-6.1-7-2.9 1.2-5.3 2-8.2 3.3 2.5 5.7 7 10.7 12.7 12.7 9 2.9 20.1.8 27-6.2 4.9-4.9 5.7-11.5 5.7-18.4.5-14.4.9-29.1.5-43.9"/><path id="Fill-23" class="st4" d="M1220.9 105c-4.5 4.1-13.5 4.9-17.6-.4-2.9-4.1 0-9.4 4.1-11.1 6.1-2.5 13.1-1.6 18.8 1.2-.4 4.2-2 7.9-5.3 10.3m11.9-27.9c-2.5-5.3-8.6-9.4-14.3-10.2-5.7-.4-11.1-.8-16 2.5-3.7 2-5.7 5.3-8.2 8.6 2.9 1.2 5.3 2.5 8.2 3.3 2-2.5 3.3-4.5 6.1-5.7 4.9-1.6 10.6-1.2 14.3 2.9 2.5 2.5 2.5 4.9 2.9 8.2-6.1-2.5-12.7-2.9-19.2-2-4.9 1.2-10.6 4.1-12.7 9-1.6 2.9-1.2 6.2-1.2 9.4.4 4.5 3.7 8.6 7.8 10.6 4.1 2.5 10.2 2.5 15.1 1.6 4.5-.8 7.4-3.7 10.6-7v6.2h9V89c-.4-3.7-.8-8.2-2.4-11.9"/><path id="Fill-24" class="st4" d="M1329.4 108.3c-8.6 1.2-16-5.3-17.2-13.9-1.2-8.2 3.3-16.8 11.5-19.3 8.6-2 16.8 4.1 18.4 12.3 2 9-2.9 19.7-12.7 20.9m13.5-36.5c-6.1-5.3-14.3-6.2-22.1-4.5-6.6 1.6-12.3 6.6-15.1 12.7-2.5 4.9-2.9 10.2-2.5 15.6.8 9 7.8 17.6 16.4 20.1 3.7.8 7.8.8 11.5.4 8.6-.4 16-7 18.8-15.2 3.6-9.8 1.5-22.1-7-29.1"/><path id="Fill-25" class="st4" d="M1375.2 68.1c-3.7 1.2-6.1 4.1-8.2 7.4v-7.4h-8.2c-.4 15.6 0 31.6 0 47.1h9V88.6c0-4.9 2.9-9.4 7.4-11.5 2.9-1.6 6.6-.8 9.8-.8 1.2-2.9 2-5.7 3.3-8.2-4.9-1.2-9-2-13.1 0"/><path id="Fill-26" class="st4" d="M1462.4 73.9c-2-3.7-6.1-6.6-10.2-7-4.1-.4-8.6-.4-12.3 1.2-3.3 1.6-5.3 4.1-7.8 6.6-2.9-4.5-6.6-7.8-11.9-8.2-7.4-.8-13.5 2-17.6 8.2v-7h-8.2c-.4 5.3-.4 10.2-.4 15.6v31.6h9.4V89c0-5.7 2.9-11.9 8.2-13.9 4.1-1.2 9.8-.4 12.3 3.3 1.6 3.3 1.6 7.8 2 11.5v24.6h8.6V89.9c0-5.3 2-10.6 6.1-13.9 5.3-3.7 13.9-1.6 15.1 4.9 2 11.1.4 22.5.8 33.6h9V87.8c-.3-4.1-.7-9.8-3.1-13.9"/><path id="Fill-27" class="st4" d="M824.3 67.7c-3.7 1.2-6.1 3.7-8.2 7-.4-2.5-.4-4.5-.8-7h-8.2c-.4 15.6 0 31.6 0 47.1h9V88.2c0-4.9 2.9-9.4 7.4-11.5 2.9-1.6 6.5-.8 9.8-.8 1.2-2.9 2.5-5.3 3.3-8.2-4.5-.8-8.2-1.6-12.3 0"/><path id="Fill-28" class="st4" d="M972.9 67.7c-.4 15.6 0 31.6 0 47.1h8.6V67.7c-2.9.4-5.7 0-8.6 0"/><path d="M425.4 266.2c-4.6 2.2-13.8 4.6-25.5 4.6-27.2 0-47.5-17.2-47.5-48.7 0-30.1 20.5-50.6 50.2-50.6 12 0 19.6 2.6 22.9 4.3l-2.9 10.2c-4.6-2.2-11.4-4-19.4-4-22.5 0-37.5 14.5-37.5 39.7 0 23.6 13.6 38.7 37 38.7 7.6 0 15.3-1.5 20.3-4l2.4 9.8zm20.7-29.1c.3 17 11.2 23.9 23.7 23.9 8.9 0 14.5-1.5 19.1-3.6l2.1 8.9c-4.5 2.1-12 4.3-23.1 4.3-21.3 0-34.1-13.9-34.1-34.9 0-20.8 12.2-37.3 32.3-37.3 22.5 0 28.6 19.8 28.6 32.5 0 2.6-.3 4.6-.3 5.8h-48.3v.4zm36.8-8.9c.2-7.9-3.3-20.5-17.4-20.5-12.7 0-18.2 11.7-19.3 20.5h36.7zm27.7-6.4c0-8.1-.2-15.1-.5-21.5h11l.3 13.6h.5c3.1-9.3 10.7-15.1 19.1-15.1 1.4 0 2.4.2 3.6.3V211c-1.2-.3-2.6-.3-4.3-.3-8.8 0-15.1 6.7-16.9 16.2-.3 1.7-.5 3.8-.5 5.8v36.8h-12.4l.1-47.7zm65.4-41.4v19.8h18v9.6h-18v37.3c0 8.6 2.4 13.4 9.5 13.4 3.3 0 5.7-.3 7.2-.9l.5 9.5c-2.4 1-6.4 1.7-11.2 1.7-5.8 0-10.5-1.9-13.6-5.3-3.6-3.8-4.8-9.8-4.8-18.1v-37.7h-10.7v-9.6h10.7v-16.5l12.4-3.2zm46.1.5c.2 4.3-2.9 7.7-7.9 7.7-4.5 0-7.6-3.4-7.6-7.7 0-4.5 3.3-7.9 7.9-7.9 4.5 0 7.6 3.4 7.6 7.9zM608 269.3v-69.2h12.6v69.2H608zm34.7 0v-59.5h-9.6v-9.6h9.6v-3.8c0-18.2 10.7-30.1 30.1-30.1 6.4 0 13.9 2.1 17.5 4.6l-3.6 9.6c-2.9-2.1-8.4-4-14.6-4-13.2 0-17.2 9.3-17.2 20.3v3.4H695v69.2h-12.4V210h-27.7v59.5h-12.2v-.2zm80.5-32.2c.3 17 11.2 23.9 23.7 23.9 8.9 0 14.5-1.5 19.1-3.6l2.1 8.9c-4.5 2.1-12 4.3-23.1 4.3-21.3 0-34.1-13.9-34.1-34.9 0-20.8 12.2-37.3 32.3-37.3 22.5 0 28.6 19.8 28.6 32.5 0 2.6-.3 4.6-.3 5.8h-48.3v.4zm36.9-8.9c.2-7.9-3.3-20.5-17.4-20.5-12.7 0-18.2 11.7-19.3 20.5h36.7zm87.4-60.2v83.6c0 6.2.2 13.1.5 17.9h-11.4l-.5-12h-.3c-3.8 7.7-12.2 13.6-23.6 13.6-16.7 0-29.6-14.1-29.6-35.1-.2-23.1 14.1-37.2 31-37.2 10.5 0 17.7 5 20.8 10.5h.3V168h12.8zm-12.6 60.4c0-1.5-.2-3.8-.5-5.3-1.9-7.9-8.8-14.6-18.1-14.6-13.1 0-20.6 11.4-20.6 26.7 0 13.9 6.9 25.6 20.5 25.6 8.4 0 16.2-5.5 18.4-15 .3-1.7.5-3.4.5-5.5v-11.9h-.2z" style="fill:#737373"/></svg>