<svg version="1.1" id="Warstwa_1" xmlns="http://www.w3.org/2000/svg" x="0" y="0" viewBox="0 0 1034.6 237.2" style="enable-background:new 0 0 1034.6 237.2" xml:space="preserve"><style>.st2{fill:#737373}</style><path d="M155.9 75c.1-17.3.6-34.5.1-51.8-.3-14.2 8.3-24 23.3-23.2 12.6.7 25.3.2 37.9.1 12.5-.1 20.1 7.7 20.1 20.1.4 65.7.2 131.5.2 197.2 0 10.7-7.5 19.3-18 19.5-21.3.4-42.6 0-63.9-.1.1-2.3.1-4.6.1-7 .2-51.6.2-103.2.2-154.8z" style="fill:#ee7b0d"/><path d="M155.9 75c0 51.6 0 103.3-.1 154.9 0 2.3-.1 4.6-.1 7-5.5.1-11 .2-16.5.2-39.9.1-79.9.1-119.8.1C9.3 237.2.2 229 .1 218.9c-.2-14.9-.2-29.9 0-44.8.2-10.5 8.6-18 19.9-18.1 16-.1 31.9 0 47.9-.1 8.2 0 7 1 7-7.2.1-17.8 0-35.5 0-53.3C75 82.6 82.6 75 95.5 75h60.4z" style="fill:#fcc41a"/><g id="g6562_00000116928524343070462980000010205079056353633421_" transform="translate(160.556 -.285) scale(.8982)"><path id="path6536_00000128486435315833194270000002116480100569870726_" class="st2" d="M285.9 88.5c0 17.8-13.9 30.9-31 30.9s-31-13.1-31-30.9c0-17.9 13.9-30.9 31-30.9s31 13 31 30.9zm-13.6 0c0-11.1-8.1-18.7-17.4-18.7s-17.4 7.6-17.4 18.7c0 11 8.1 18.7 17.4 18.7s17.4-7.7 17.4-18.7z"/><path id="path6538_00000105403874695633600300000001046311070983436978_" class="st2" d="M352.6 88.5c0 17.8-13.9 30.9-31 30.9s-31-13.1-31-30.9c0-17.9 13.9-30.9 31-30.9 17.1.1 31 13 31 30.9zm-13.5 0c0-11.1-8.1-18.7-17.4-18.7-9.4 0-17.4 7.6-17.4 18.7 0 11 8.1 18.7 17.4 18.7s17.4-7.7 17.4-18.7z"/><path id="path6540_00000070809137212234484610000001929553914598668195_" class="st2" d="M416.7 59.5v55.4c0 22.8-13.4 32.1-29.3 32.1-15 0-24-10-27.4-18.2l11.8-4.9c2.1 5 7.2 11 15.5 11 10.2 0 16.5-6.3 16.5-18.1v-4.4h-.5c-3 3.7-8.9 7-16.3 7-15.4 0-29.6-13.4-29.6-30.7 0-17.4 14.1-31 29.6-31 7.4 0 13.2 3.3 16.3 6.9h.5v-5l12.9-.1zm-12 29.1c0-10.9-7.2-18.8-16.5-18.8-9.4 0-17.2 7.9-17.2 18.8 0 10.8 7.8 18.6 17.2 18.6 9.3 0 16.5-7.8 16.5-18.6z"/><path id="path6542_00000168096687143976392380000008188527073395957431_" class="st2" d="M437.9 27.1v90.4h-13.2V27.1h13.2z"/><path id="path6544_00000047057202781324504860000012674439610963667363_" class="st2" d="m489.4 98.7 10.5 7c-3.4 5-11.6 13.7-25.7 13.7-17.5 0-30.6-13.6-30.6-30.9 0-18.4 13.2-30.9 29.1-30.9 16 0 23.8 12.7 26.4 19.6l1.4 3.5-41.3 17.1c3.2 6.2 8.1 9.4 15 9.4s11.7-3.4 15.2-8.5zM457 87.6l27.6-11.5c-1.5-3.9-6.1-6.5-11.5-6.5-6.9 0-16.4 6.1-16.1 18z"/><path id="path6546_00000049196260431392443760000016951900958319529659_" class="st2" d="M173.9 80.5V67.4H218c.4 2.3.7 5 .7 7.9 0 9.8-2.7 22-11.3 30.6-8.4 8.8-19.2 13.4-33.4 13.4-26.4 0-48.6-21.5-48.6-47.9s22.2-47.9 48.6-47.9c14.6 0 25 5.7 32.8 13.2l-9.2 9.2c-5.6-5.3-13.2-9.4-23.6-9.4-19.3 0-34.4 15.5-34.4 34.8s15.1 34.8 34.4 34.8c12.5 0 19.6-5 24.2-9.6 3.7-3.7 6.1-9 7.1-16.2l-31.4.2z"/></g><g id="g6607_00000012452048278245741710000006926132338591392939_" transform="translate(-174.95 -339.18) scale(3.54856)"><g id="use3812_00000170259079231656591830000008956318617447806616_"><path id="path1196_00000024702110892963255460000014732806424798068099_" class="st2" d="m236.8 107.3 3.5 9.5h-7l3.4-9.5h.1zm-4.5 12h8.9l2 5.7h3l-7.9-21.1h-3.1l-7.9 21.1h3l2-5.7z"/></g><g id="use3814_00000178892470947040799310000016018856090506855610_"><path id="path1199_00000135680201527010425180000011986936487772990624_" class="st2" d="M247.6 125h2.7v-8c0-1.2.4-2.2 1.1-3.1.7-.9 1.6-1.3 2.7-1.3 2.3 0 3.5 1.2 3.5 3.5v8.9h2.7v-9c0-1.9-.5-3.3-1.4-4.3s-2.3-1.5-4.1-1.5c-.9 0-1.8.2-2.7.7s-1.5 1-1.9 1.7h-.1v-2h-2.6l.1 14.4z"/></g><g id="use3818_00000176005691120024546350000008869660228482221489_"><path id="path1202_00000034055335055040980950000003460577022276618121_" class="st2" d="M266.5 118.6c.7-.5 1.6-.8 2.7-.8 1.5 0 2.7.3 3.5 1 0 1.2-.5 2.1-1.4 3-.9.8-1.9 1.2-3 1.2-.8 0-1.5-.2-2.1-.7s-.9-1.1-.9-1.8c.1-.7.4-1.3 1.2-1.9zm-3.4-5.6 2.4 1.5c.9-1.3 2.1-1.9 3.6-1.9 1 0 1.9.3 2.6 1 .8.7 1.1 1.4 1.1 2.4v.6c-1-.6-2.4-.9-4-.9-1.9 0-3.4.4-4.5 1.3s-1.7 2.1-1.7 3.5.5 2.6 1.6 3.5 2.4 1.4 4 1.4c1.9 0 3.4-.8 4.5-2.5h.1v2h2.6V116c0-1.9-.6-3.3-1.7-4.4-1.2-1.1-2.7-1.6-4.7-1.6-2.7.1-4.6 1.1-5.9 3z"/></g><g id="use3820_00000086659312591661955880000010848139027851846587_"><path id="path1205_00000127043021296367092100000005624051029296801471_" class="st2" d="M278.3 104v21h2.7v-21h-2.7z"/></g><g id="use3822_00000111872599126858714910000016859461231204870051_"><path id="path1208_00000008149849262475172310000016927824251625388934_" class="st2" d="m294 110.6-4.2 10.4h-.1l-4.3-10.4h-2.9l6 13.5-3.4 7.3h2.8l9-20.8H294z"/></g><g id="use3826_00000005974925346370022610000005236324223891914668_"><path id="path1211_00000005249646192605692700000016592107286961417914_" class="st2" d="m306.9 124.9-.8-2.4c-.2.1-.4.1-.6.2-.2 0-.4.1-.6.1-.5 0-.9-.2-1.3-.5s-.6-1-.6-2v-7.2h3.5v-2.5H303v-4.4h-2.7v4.4h-2.6v2.5h2.6v8.1c0 1.3.4 2.3 1.2 3s1.7 1.1 2.9 1.1c1-.1 1.8-.2 2.5-.4z"/></g><g id="use3830_00000030483156877926266370000011865525758157312689_"><path id="path1214_00000145030164430154671640000003262877270139228054_" class="st2" d="M311.9 104.3c-.4-.4-.8-.6-1.3-.6s-1 .2-1.4.6-.6.8-.6 1.4c0 .5.2 1 .6 1.4s.8.6 1.4.6c.5 0 1-.2 1.3-.6.4-.4.6-.8.6-1.4 0-.6-.2-1-.6-1.4zm-2.7 6.3V125h2.7v-14.4h-2.7z"/></g><g id="use3834_00000120517568038542029840000003757981906207868850_"><path id="path1217_00000108305353166492581200000009463527542197761459_" class="st2" d="M325 124.4c1.1-.7 1.9-1.8 2.5-3.1l-2.4-1c-.8 1.8-2.2 2.7-4.2 2.7-1.2 0-2.3-.5-3.2-1.5-.9-1-1.3-2.2-1.3-3.7s.4-2.7 1.3-3.7 2-1.5 3.2-1.5c1.9 0 3.3.9 4 2.7l2.5-1c-.6-1.3-1.4-2.3-2.5-3.1-1.1-.7-2.4-1.1-3.9-1.1-2.1 0-3.9.7-5.3 2.2-1.4 1.4-2.1 3.3-2.1 5.5s.7 4 2.1 5.5 3.2 2.2 5.3 2.2c1.6 0 2.9-.4 4-1.1z"/></g><g id="use3836_00000145757952361116340770000004296772412774039943_"><path id="path1220_00000056386186166789181800000010927554850933066657_" class="st2" d="m336.6 116.7-2.2-.6c-1.6-.4-2.3-1-2.3-1.8 0-.5.3-.9.8-1.3.6-.3 1.2-.5 1.9-.5.8 0 1.4.2 2.1.5.6.3 1.1.8 1.4 1.4l2.4-1c-.4-1-1.1-1.8-2.2-2.4-1-.6-2.2-.9-3.5-.9-1.7 0-3 .4-4.1 1.2-1.1.8-1.6 1.9-1.6 3.2 0 2 1.4 3.4 4.2 4.1l2.5.6c1.4.4 2.1 1.1 2.1 2 0 .5-.3 1-.9 1.3-.6.4-1.3.6-2.2.6-.8 0-1.5-.2-2.2-.7s-1.2-1.2-1.6-2l-2.4 1c.5 1.2 1.3 2.2 2.4 3s2.4 1.1 3.8 1.1c1.7 0 3-.4 4.1-1.3s1.7-1.9 1.7-3.2c.1-2.1-1.4-3.6-4.2-4.3z"/></g></g><path class="st2" d="M321.8 224c-2.7 1.3-8 2.7-14.8 2.7-15.8 0-27.6-10-27.6-28.3 0-17.5 11.9-29.4 29.2-29.4 7 0 11.4 1.5 13.3 2.5l-1.7 5.9c-2.7-1.3-6.6-2.3-11.3-2.3-13.1 0-21.8 8.4-21.8 23.1 0 13.7 7.9 22.5 21.5 22.5 4.4 0 8.9-.9 11.8-2.3l1.4 5.6zm12-16.9c.2 9.9 6.5 13.9 13.8 13.9 5.2 0 8.4-.9 11.1-2.1l1.2 5.2c-2.6 1.2-7 2.5-13.4 2.5-12.4 0-19.8-8.1-19.8-20.3 0-12.1 7.1-21.7 18.8-21.7 13.1 0 16.6 11.5 16.6 18.9 0 1.5-.2 2.7-.2 3.4h-28.1v.2zm21.4-5.2c.1-4.6-1.9-11.9-10.1-11.9-7.4 0-10.6 6.8-11.2 11.9h21.3zm16.1-3.7c0-4.7-.1-8.8-.3-12.5h6.4l.2 7.9h.3c1.8-5.4 6.2-8.8 11.1-8.8.8 0 1.4.1 2.1.2v6.9c-.7-.2-1.5-.2-2.5-.2-5.1 0-8.8 3.9-9.8 9.4-.2 1-.3 2.2-.3 3.4v21.4h-7.2v-27.7zm38-24.1v11.5h10.5v5.6h-10.5v21.7c0 5 1.4 7.8 5.5 7.8 1.9 0 3.3-.2 4.2-.5l.3 5.5c-1.4.6-3.7 1-6.5 1-3.4 0-6.1-1.1-7.9-3.1-2.1-2.2-2.8-5.7-2.8-10.5v-21.9h-6.2v-5.6h6.2V176l7.2-1.9zm26.8.3c.1 2.5-1.7 4.5-4.6 4.5-2.6 0-4.4-2-4.4-4.5 0-2.6 1.9-4.6 4.6-4.6 2.6 0 4.4 2 4.4 4.6zm-8.2 51.4v-40.2h7.3v40.2h-7.3zm20.2 0v-34.6h-5.6v-5.6h5.6v-2.2c0-10.6 6.2-17.5 17.5-17.5 3.7 0 8.1 1.2 10.2 2.7l-2.1 5.6c-1.7-1.2-4.9-2.3-8.5-2.3-7.7 0-10 5.4-10 11.8v2h23.3v40.2h-7.2v-34.6h-16.1v34.6h-7.1v-.1zm46.8-18.7c.2 9.9 6.5 13.9 13.8 13.9 5.2 0 8.4-.9 11.1-2.1l1.2 5.2c-2.6 1.2-7 2.5-13.4 2.5-12.4 0-19.8-8.1-19.8-20.3 0-12.1 7.1-21.7 18.8-21.7 13.1 0 16.6 11.5 16.6 18.9 0 1.5-.2 2.7-.2 3.4h-28.1v.2zm21.4-5.2c.1-4.6-1.9-11.9-10.1-11.9-7.4 0-10.6 6.8-11.2 11.9h21.3zm50.8-35v48.6c0 3.6.1 7.6.3 10.4h-6.6l-.3-7h-.2c-2.2 4.5-7.1 7.9-13.7 7.9-9.7 0-17.2-8.2-17.2-20.4-.1-13.4 8.2-21.6 18-21.6 6.1 0 10.3 2.9 12.1 6.1h.2v-24h7.4zm-7.3 35.1c0-.9-.1-2.2-.3-3.1-1.1-4.6-5.1-8.5-10.5-8.5-7.6 0-12 6.6-12 15.5 0 8.1 4 14.9 11.9 14.9 4.9 0 9.4-3.2 10.7-8.7.2-1 .3-2 .3-3.2V202h-.1zm40.3-31.4c3.5-.6 8.1-1.1 13.9-1.1 7.1 0 12.4 1.7 15.7 4.6 3.1 2.7 4.9 6.7 4.9 11.7 0 5.1-1.5 9-4.3 12-3.8 4.1-10 6.1-17.1 6.1-2.2 0-4.2-.1-5.8-.5v22.4h-7.2v-55.2h-.1zm7.2 26.9c1.6.4 3.6.6 6 .6 8.7 0 14-4.2 14-12 0-7.4-5.2-11-13.2-11-3.2 0-5.6.2-6.8.6v21.8zm35.3.7c0-4.7-.1-8.8-.3-12.5h6.4l.2 7.9h.3c1.8-5.4 6.2-8.8 11.1-8.8.8 0 1.4.1 2.1.2v6.9c-.7-.2-1.5-.2-2.5-.2-5.1 0-8.8 3.9-9.8 9.4-.2 1-.3 2.2-.3 3.4v21.4h-7.2v-27.7zm62.7 7.2c0 14.9-10.3 21.3-20 21.3-10.9 0-19.3-8-19.3-20.7 0-13.4 8.8-21.3 19.9-21.3 11.6.1 19.4 8.4 19.4 20.7zm-31.9.4c0 8.8 5.1 15.4 12.2 15.4 7 0 12.2-6.6 12.2-15.6 0-6.8-3.4-15.4-12-15.4s-12.4 8-12.4 15.6zm41.9 20v-34.6h-5.6v-5.6h5.6v-1.9c0-5.6 1.2-10.8 4.6-14 2.7-2.7 6.4-3.7 9.8-3.7 2.6 0 4.8.6 6.2 1.2l-1 5.6c-1.1-.5-2.6-.9-4.6-.9-6.2 0-7.8 5.5-7.8 11.6v2.2h9.7v5.6h-9.7v34.6h-7.2v-.1zm26.5-18.7c.2 9.9 6.5 13.9 13.8 13.9 5.2 0 8.4-.9 11.1-2.1l1.2 5.2c-2.6 1.2-7 2.5-13.4 2.5-12.4 0-19.8-8.1-19.8-20.3 0-12.1 7.1-21.7 18.8-21.7 13.1 0 16.6 11.5 16.6 18.9 0 1.5-.2 2.7-.2 3.4h-28.1v.2zm21.4-5.2c.1-4.6-1.9-11.9-10.1-11.9-7.4 0-10.6 6.8-11.2 11.9h21.3zm15.1 16.5c2.2 1.4 6 2.9 9.6 2.9 5.3 0 7.8-2.7 7.8-6 0-3.5-2.1-5.4-7.5-7.4-7.2-2.6-10.6-6.6-10.6-11.4 0-6.5 5.2-11.8 13.9-11.8 4.1 0 7.6 1.2 9.9 2.5l-1.8 5.3c-1.6-1-4.5-2.3-8.2-2.3-4.3 0-6.7 2.5-6.7 5.5 0 3.3 2.4 4.8 7.6 6.8 7 2.7 10.5 6.1 10.5 12.1 0 7.1-5.5 12-15 12-4.4 0-8.5-1.1-11.3-2.7l1.8-5.5zm32.9 0c2.2 1.4 6 2.9 9.6 2.9 5.3 0 7.8-2.7 7.8-6 0-3.5-2.1-5.4-7.5-7.4-7.2-2.6-10.6-6.6-10.6-11.4 0-6.5 5.2-11.8 13.9-11.8 4.1 0 7.6 1.2 9.9 2.5l-1.8 5.3c-1.6-1-4.5-2.3-8.2-2.3-4.3 0-6.7 2.5-6.7 5.5 0 3.3 2.4 4.8 7.6 6.8 7 2.7 10.5 6.1 10.5 12.1 0 7.1-5.5 12-15 12-4.4 0-8.5-1.1-11.3-2.7l1.8-5.5zm42-44c.1 2.5-1.7 4.5-4.6 4.5-2.6 0-4.4-2-4.4-4.5 0-2.6 1.9-4.6 4.6-4.6 2.7 0 4.4 2 4.4 4.6zm-8.1 51.4v-40.2h7.3v40.2h-7.3zm55.8-20.4c0 14.9-10.3 21.3-20 21.3-10.9 0-19.3-8-19.3-20.7 0-13.4 8.8-21.3 19.9-21.3 11.5.1 19.4 8.4 19.4 20.7zm-31.9.4c0 8.8 5.1 15.4 12.2 15.4 7 0 12.2-6.6 12.2-15.6 0-6.8-3.4-15.4-12-15.4-8.7 0-12.4 8-12.4 15.6zm41.1-9.3c0-4.2-.1-7.6-.3-10.9h6.5l.4 6.6h.2c2-3.8 6.6-7.6 13.3-7.6 5.6 0 14.2 3.3 14.2 17.1v24H937v-23.2c0-6.5-2.4-11.9-9.3-11.9-4.8 0-8.6 3.4-9.8 7.5-.3.9-.5 2.2-.5 3.4v24.2h-7.3v-29.2zm68.3 29.3-.6-5.1h-.2c-2.2 3.2-6.6 6-12.3 6-8.1 0-12.3-5.7-12.3-11.5 0-9.7 8.6-15 24.2-14.9v-.8c0-3.3-.9-9.3-9.1-9.3-3.7 0-7.6 1.2-10.5 3l-1.7-4.8c3.3-2.2 8.1-3.6 13.2-3.6 12.3 0 15.3 8.4 15.3 16.4v15c0 3.5.2 6.9.7 9.6h-6.7zm-1.1-20.5c-8-.2-17 1.2-17 9 0 4.7 3.2 7 6.9 7 5.2 0 8.6-3.3 9.7-6.7.2-.7.4-1.6.4-2.3v-7zm18.9-38.4h7.3v58.9h-7.3v-58.9z"/></svg>