<svg version="1.1" id="katman_1" xmlns="http://www.w3.org/2000/svg" xmlns:xlink="http://www.w3.org/1999/xlink" x="0" y="0" viewBox="0 0 959.7 240.3" style="enable-background:new 0 0 959.7 240.3" xml:space="preserve"><style>.st1{fill:#6f97cf}.st2{fill:#376bb3}</style><defs><path id="SVGID_1_" d="M0 0h959.7v240.3H0z"/></defs><clipPath id="SVGID_00000007398125993080700690000005188817844590866108_"><use xlink:href="#SVGID_1_" style="overflow:visible"/></clipPath><g style="clip-path:url(#SVGID_00000007398125993080700690000005188817844590866108_)"><path class="st1" d="M226.5 173h-93.4c-22.7 0-35.2 15.6-35.2 32.1 0 15.3 10.7 32.1 35.2 32.1h93.4V173z"/><path class="st2" d="M226.5 237.2c17.8 0 32.1-14.4 32.1-32.1S244.3 173 226.5 173s-32.1 14.4-32.1 32.1c0 17.8 14.4 32.1 32.1 32.1z"/><path class="st1" d="M130.1 87.2H36.7c-22.6 0-35.2 15.6-35.2 32.1 0 15.3 10.7 32.1 35.2 32.1h93.4V87.2z"/><path class="st2" d="M130.1 151.5c17.8 0 32.1-14.4 32.1-32.1s-14.4-32.1-32.1-32.1c-17.8 0-32.1 14.4-32.1 32.1 0 17.7 14.3 32.1 32.1 32.1z"/><path class="st1" d="M226.5 1.5h-93.4C110.5 1.5 98 17.1 98 33.7c0 15.3 10.7 32.1 35.2 32.1h93.4V1.5z"/><path class="st2" d="M226.5 65.8c17.8 0 32.1-14.4 32.1-32.1S244.3 1.5 226.5 1.5s-32.1 14.4-32.1 32.1 14.4 32.2 32.1 32.2z"/><path d="M350.9 48.1h47c.8 2.8 1.1 5.7 1.1 8.6 0 6.1-1.1 11.9-2.9 17.5-1.9 5.5-4.9 10.5-8.9 14.7-9.3 9.9-22.5 15.2-36.1 14.4-13.4 0-26.2-5-36-14.2-19.9-19.6-20.1-51.6-.5-71.4 9.6-9.8 22.8-15.2 36.5-15 13.9-.6 27.3 4.9 36.7 15.1L375.4 30c-9.4-10.2-24.3-13.3-37-7.6-7.9 3-14.2 9.2-17.5 17-1.8 4.3-2.7 9-2.6 13.6-.2 9 3.2 17.8 9.6 24.2 6.3 5.7 14.6 9 23.1 9 8.2.4 16.2-2.5 22.4-8 2-1.7 3.5-3.7 4.7-6.1 1.5-2.6 2.5-5.4 3.1-8.4h-30.1V48.2l-.2-.1zm91.7-15.3c9.3 0 18.3 3.6 25 10.1 3.1 3.1 5.7 6.7 7.3 11 1.8 4.5 2.6 9.3 2.6 14.1.1 9.4-3.5 18.5-10 25.4-6.6 6.6-15.6 10.1-25 9.8-9.4.2-18.4-3.4-25.2-9.8-6.5-6.8-10-16-9.8-25.4-.9-18.6 13.5-34.3 32.1-35.2 1-.1 2-.1 3 0zm0 54.1c4.6 0 9-1.8 12.2-5 1.5-1.5 2.8-3.5 3.5-6 1.1-2.5 1.6-5.2 1.5-8 .1-5.1-1.8-10-5.2-13.8-1.5-1.5-3.5-2.9-5.7-3.7-4.2-1.9-9-1.9-13.2 0-2 .8-3.8 2-5.5 3.7-3.6 3.7-5.5 8.7-5.2 13.8-.4 7.5 3.9 14.5 10.7 17.6 2.3 1 4.5 1.4 6.9 1.4zm77.6-54c9.3-.1 18.3 3.5 25 10 3.1 3.1 5.7 6.7 7.3 11 1.8 4.3 2.6 9 2.6 14.1.1 9.4-3.5 18.5-10 25.4-6.6 6.6-15.6 10.1-25 9.8-9.4.2-18.4-3.4-25.3-9.8-6.5-6.8-10-16-9.8-25.4-.9-18.6 13.5-34.3 32.1-35.2h3l.1.1zm0 54c4.6 0 9-1.8 12.2-5 1.5-1.5 2.8-3.5 3.5-6 1.1-2.5 1.6-5.2 1.5-8 .1-5.1-1.8-10-5.2-13.8-1.5-1.5-3.5-2.9-5.7-3.7-4.2-1.9-9-1.9-13.2 0-2 .8-3.8 2-5.5 3.7-3.6 3.7-5.5 8.7-5.2 13.8-.4 7.5 3.9 14.5 10.7 17.6 2.3 1 4.5 1.4 6.9 1.4zm76.7 45.3c-7.8.1-15.4-2.2-21.9-6.6-2.5-1.7-4.8-3.9-6.7-6.3-1.8-2.5-3.1-4.6-4-7l16.8-6.7c2.4 6.7 8.7 11.1 15.8 11 5.7 0 10-1.7 13.3-5.2 3.1-3.5 4.7-8.3 4.7-14.4v-4.6h-1.1c-2.1 2.9-4.9 5.3-8.1 6.9-3.4 1.5-7.3 2.3-11.9 2.3-8.1.1-15.9-3.3-21.4-9.2-13.2-14.1-13.2-36.1 0-50.2 5.6-5.9 13.3-9.2 21.4-9.3 4.6 0 8.6.8 11.9 2.5 3.4 1.7 6.1 4 8.1 6.7h1.1v-6.9h16.8v61.2c0 5.7-.8 10.7-2.5 15-3.2 8.5-9.9 15.1-18.4 18.4-4.5 1.8-9.3 2.6-14.1 2.6l.2-.2zm.8-46.3c4.4 0 8.7-1.7 11.9-4.7 3.6-3.7 5.5-8.6 5.4-13.8 0-3.1-.5-5.7-1.5-8-1.7-4.3-5.2-7.8-9.5-9.5-4.1-1.6-8.6-1.6-12.7 0-2 .9-3.8 2.1-5.5 3.7-3.5 3.7-5.5 8.6-5.4 13.8-.2 5.1 1.8 10.1 5.4 13.8 3.2 3 7.5 4.7 11.9 4.6v.1zM647 101V4.6h17.6V101H647zm94.5-15.9c-6.1 11.5-18.3 18.6-31.4 18.1-14.1.3-26.9-8-32.5-21-3.4-8.9-3.4-18.7 0-27.5 3.3-8.4 9.7-15.1 17.9-18.8 4.3-2 9-3 13.8-3.1 5.4 0 10 1.1 14.1 2.8s7.7 4.1 10.4 7.4c2.9 3.1 5.1 6.8 6.4 10.9 1.4 4.3 2.1 8.9 2.1 13.8V69l-.2 1.5-.2 1.5h-49.7c.3 2.5 1 4.9 2.1 7 1.1 1.8 2.5 3.4 4.1 4.7 1.8 1.2 3.7 2.3 5.7 2.9 1.8.5 4 .8 6.1.8 4 0 7.2-.9 9.8-2.8 2.8-1.8 4.9-4.1 6.4-6.9l14.7 7.2.4.2zm-16-25.4c-.1-1.4-.6-2.8-1.2-4-1.6-3.3-4.4-5.9-7.8-7.2-1.8-.6-4.1-1.1-6.9-1.1-7.5-.2-14.2 4.9-16.1 12.2l32 .1zM305 237.2v-95.4h29.1c13-.6 25.7 4.2 35 13.2 9 9.2 13.9 21.7 13.3 34.6 0 14.2-4.4 25.7-13.3 34.6-9.4 8.9-22.1 13.6-35 13H305zm12.3-83.5v71.9h16.8c11.2 0 19.9-3.2 26.3-9.5 6.3-6.4 9.5-15.3 9.5-26.5 0-11.3-3.1-20-9.5-26.5-7.1-6.6-16.6-10.1-26.3-9.5 0 .1-16.8.1-16.8.1zm86.6 63.5c0 3.2 1.2 6 4 8.1 2.7 2 6.1 3.1 9.5 3.1 5.2 0 9.8-1.8 13.8-5.7 4.1-3.8 6.1-8.3 6.1-13.5-3.8-3.1-9.2-4.6-15.9-4.6-5 0-9.2 1.4-12.5 3.7-3.5 2.5-5 5.4-5 8.9zm15.8-47.5c9.2 0 16.2 2.6 21.4 7.5 5.2 4.6 7.8 11.3 7.8 19.9v40.1h-11.6V228h-.6c-4.3 7.1-11.9 11.4-20.2 11.3-7.2 0-13.2-2.1-18.1-6.4-4.6-4-7.3-9.8-7.2-15.9 0-6.7 2.5-12.2 7.7-16.2 5.9-4.2 13.1-6.3 20.4-6 7.3 0 13.3 1.4 18.1 4V196c0-4.1-1.8-8.1-5-10.7-3.4-3.1-7.3-4.6-11.9-4.6-6.7 0-12.2 2.9-16.2 8.7l-10.7-6.9c6-8.4 14.7-12.7 26.3-12.7l-.2-.1zm67.6 68.6c-4.9.2-9.7-1.5-13.3-4.9-3.6-3.6-5.6-8.6-5.4-13.8v-36.4h-11.5V172h11.5v-19.9h12.2V172H497v11.2h-16.1v32.5c0 4.3.9 7.3 2.6 8.9 1.5 1.5 3.5 2.3 5.7 2.3 1.1 0 2 0 2.8-.3 1.1-.2 2-.5 2.8-.9l3.8 11c-3.2 1-7 1.6-11.3 1.6zm28.9-21.1c0 3.2 1.2 6 4 8.1 2.7 2 6.1 3.1 9.5 3.1 5.2 0 9.8-1.8 13.8-5.7 4.1-3.8 6.1-8.3 6.1-13.5-3.8-3.1-9.2-4.6-15.9-4.6-5 0-9.2 1.4-12.5 3.7-3.4 2.5-5 5.4-5 8.9zm15.8-47.5c9.2 0 16.2 2.6 21.4 7.5 5.2 4.6 8 11.3 8 19.9v40.1h-11.9V228h-.6c-4.3 7.1-11.9 11.4-20.2 11.3-7.2 0-13.2-2.1-18.1-6.4-4.7-4-7.3-9.8-7.2-15.9 0-6.7 2.5-12.2 7.7-16.2 5.1-4 11.9-6 20.5-6 7.2 0 13.2 1.4 17.9 4V196c0-4.1-1.8-8.1-5-10.7-3.4-3.1-7.3-4.6-11.9-4.6-6.7 0-12.2 2.9-16.2 8.7l-10.7-6.9c6-8.4 14.7-12.7 26.3-12.7v-.1zm129.3 42.1c0 8.3-3.1 15-9.2 20-6.5 5.1-14.5 7.7-22.7 7.5-7.8 0-14.8-2.3-20.8-6.9-6.2-4.8-10.6-11.4-12.5-19l11.6-4.7c1.5 5.2 4.3 10 8.3 13.8 3.8 3.4 8.7 5.3 13.8 5.2 5.5 0 10.1-1.5 13.8-4.3 3.5-3.1 5.2-6.9 5.2-11.6.1-3.9-1.5-7.6-4.3-10.2-4.5-3.7-9.8-6.4-15.5-8-7.7-2.8-12.4-4.6-14.2-5.7-10.2-5.2-15.3-12.7-15.3-22.8 0-6.9 2.9-13 8.4-17.9 5.8-5 13.3-7.7 21-7.5 6.7-.1 13.3 1.9 18.8 5.7 5.4 3.5 8.9 8.1 10.7 13.8l-11.5 4.6c-1.1-3.5-3.1-6.4-6.4-8.7-3.3-2.4-7.3-3.6-11.3-3.5-4.4-.2-8.8 1.2-12.2 4-3.1 2.2-5 5.8-4.9 9.6 0 3.4 1.4 6.1 3.8 8.6 2.9 2.5 9.2 5.2 18.5 8.6 7.8 2.1 15 6.3 20.7 12.1 4.1 4.5 6.2 10.4 6.2 17.3zm35.2 26.5c-5 .3-9.8-1.5-13.5-4.9-3.6-3.6-5.6-8.6-5.4-13.8v-36.4h-11.3V172h11.3v-19.9H690V172h16v11.2h-16v32.5c0 4.3.9 7.3 2.6 8.9s3.5 2.3 5.7 2.3c1.1 0 2 0 2.9-.3.9-.2 1.8-.5 2.6-.9l3.8 11c-3.1 1.1-6.9 1.7-11.2 1.7h.1zm78.4-1.1h-11.6V228h-.6c-1.8 3.4-4.7 6.1-8.7 8.1-3.7 2.1-7.7 3.1-11.9 3.1-8 0-14.1-2.1-18.4-6.6-4.4-4.6-6.6-11.2-6.6-19.6v-41h12.2v40.1c.3 10.7 5.7 16.1 16.2 16.1 4.8.1 9.3-2.1 12.2-5.8 3.2-4.1 4.9-8.9 4.9-14.4v-36h12.2l.1 65.2zm43.6-9.1c6.1 0 10.9-2 14.7-6.4 4-4.3 6.1-10 6.1-17 0-6.9-2.1-12.5-6.1-16.8-3.6-4.3-9-6.8-14.7-6.7-6 0-10.7 2.1-14.8 6.6-4 4.6-6.1 10.1-6.1 16.8 0 7 2.1 12.7 6.1 17 4 4.6 8.9 6.7 14.8 6.7v-.2zm-2 11.3c-8.6 0-15.9-3.4-22-10.1-6.1-6.9-9.2-15.2-9.2-24.6 0-9.6 3.1-17.8 9.2-24.6 8.6-10.2 23.2-13.2 35-7 3.7 1.8 6.9 4.6 9.2 8.1h.5l-.5-9.2v-30H851v95.2h-11.8V228h-.5c-2.2 3.5-5.4 6.4-9.2 8.3-3.9 2-8.2 3.1-13 3.1zm65.1-89.9c0 2.3-.8 4.4-2.5 6.1-1.6 1.6-3.8 2.5-6.1 2.5-2.5 0-4.6-.8-6.1-2.5-1.7-1.6-2.6-3.8-2.6-6.1 0-2.5.8-4.6 2.5-6.1 1.6-1.7 3.8-2.6 6.1-2.6 2.5 0 4.6.9 6.1 2.6 1.7 1.6 2.6 3.8 2.6 6.1zm-2.5 22.5v65.2h-12.2V172h12.2zm11.5 32.6c0-10.1 3.1-18.4 9.5-25 6.3-6.5 15-10 24-9.8 9.8 0 17.8 3.2 24 9.8 6.4 6.6 9.6 14.9 9.6 25s-3.2 18.4-9.6 24.9c-6.3 6.5-15 10.1-24 9.8-9 .3-17.8-3.3-24-9.8-6.4-6.6-9.8-15.6-9.5-24.9zm12.3 0c0 7 2 12.7 6.1 17 3.9 4.3 9.5 6.7 15.3 6.6 5.8.1 11.3-2.3 15.2-6.6 4-4.3 6.1-10 6.1-17 0-6.9-2.1-12.5-6.1-16.8-3.9-4.4-9.5-6.9-15.3-6.7-6 0-11 2.1-15.2 6.6-4.1 4.4-6.1 10.1-6.1 16.8v.1z" style="fill:#737373"/></g></svg>