<svg width="204" height="142" viewBox="0 0 204 142" fill="none" xmlns="http://www.w3.org/2000/svg">
<rect width="203.996" height="141.034" rx="8.39491" fill="white"/>
<path d="M15.7556 49.2587V40.81H13.8214V39.2519H17.5823V49.2587H15.7556ZM22.7745 49.4198C22.0939 49.4198 21.4895 49.2766 20.9612 48.99C20.4418 48.6945 20.0344 48.3005 19.7389 47.808C19.4434 47.3066 19.2956 46.738 19.2956 46.1022C19.2956 45.7798 19.327 45.4575 19.3896 45.1351C19.4613 44.8127 19.5866 44.468 19.7657 44.1008C19.9538 43.7337 20.2224 43.3263 20.5716 42.8785L23.3655 39.2519H25.5414L22.1432 43.6173L21.8477 43.2949C21.973 43.1964 22.1029 43.1203 22.2372 43.0666C22.3715 43.0039 22.5058 42.9591 22.6402 42.9323C22.7834 42.9054 22.9312 42.892 23.0834 42.892C23.6923 42.892 24.2341 43.0308 24.7087 43.3084C25.1832 43.5859 25.5549 43.9665 25.8235 44.4501C26.1011 44.9247 26.2399 45.4619 26.2399 46.0619C26.2399 46.7066 26.0921 47.2842 25.7966 47.7946C25.5011 48.2961 25.0892 48.6945 24.5609 48.99C24.0415 49.2766 23.4461 49.4198 22.7745 49.4198ZM22.7745 47.7677C23.0789 47.7677 23.352 47.7006 23.5938 47.5663C23.8445 47.423 24.0415 47.2215 24.1848 46.9618C24.337 46.7021 24.4132 46.4111 24.4132 46.0888C24.4132 45.7485 24.337 45.4575 24.1848 45.2157C24.0415 44.965 23.849 44.768 23.6072 44.6247C23.3655 44.4814 23.0879 44.4098 22.7745 44.4098C22.47 44.4098 22.1924 44.4814 21.9417 44.6247C21.691 44.768 21.4895 44.965 21.3373 45.2157C21.194 45.4575 21.1224 45.7485 21.1224 46.0888C21.1224 46.4111 21.194 46.7021 21.3373 46.9618C21.4895 47.2215 21.691 47.423 21.9417 47.5663C22.1924 47.7006 22.47 47.7677 22.7745 47.7677ZM31.553 49.4198C30.7561 49.4198 30.0576 49.2049 29.4577 48.7751C28.8577 48.3453 28.3876 47.7409 28.0473 46.9618C27.716 46.1828 27.5503 45.2784 27.5503 44.2486C27.5503 43.2099 27.716 42.3054 28.0473 41.5354C28.3786 40.7653 28.8443 40.1653 29.4442 39.7355C30.0442 39.3057 30.7426 39.0908 31.5396 39.0908C32.3545 39.0908 33.0574 39.3057 33.6484 39.7355C34.2483 40.1653 34.7185 40.7697 35.0587 41.5488C35.399 42.3189 35.5691 43.2188 35.5691 44.2486C35.5691 45.2784 35.399 46.1828 35.0587 46.9618C34.7274 47.7319 34.2618 48.3363 33.6618 48.7751C33.0619 49.2049 32.3589 49.4198 31.553 49.4198ZM31.5665 47.7543C32.0231 47.7543 32.4127 47.6155 32.735 47.3379C33.0574 47.0514 33.3036 46.6484 33.4738 46.129C33.6529 45.6007 33.7424 44.9739 33.7424 44.2486C33.7424 43.5233 33.6529 42.9009 33.4738 42.3816C33.3036 41.8532 33.0529 41.4503 32.7216 41.1727C32.3992 40.8951 32.0052 40.7563 31.5396 40.7563C31.0919 40.7563 30.7068 40.8951 30.3845 41.1727C30.0621 41.4503 29.8114 41.8532 29.6323 42.3816C29.4621 42.9009 29.3771 43.5233 29.3771 44.2486C29.3771 44.965 29.4621 45.5873 29.6323 46.1156C29.8114 46.635 30.0621 47.0379 30.3845 47.3245C30.7158 47.611 31.1098 47.7543 31.5665 47.7543ZM41.0629 49.4198C40.2659 49.4198 39.5675 49.2049 38.9675 48.7751C38.3676 48.3453 37.8974 47.7409 37.5572 46.9618C37.2258 46.1828 37.0602 45.2784 37.0602 44.2486C37.0602 43.2099 37.2258 42.3054 37.5572 41.5354C37.8885 40.7653 38.3541 40.1653 38.9541 39.7355C39.554 39.3057 40.2525 39.0908 41.0494 39.0908C41.8643 39.0908 42.5672 39.3057 43.1582 39.7355C43.7582 40.1653 44.2283 40.7697 44.5686 41.5488C44.9089 42.3189 45.079 43.2188 45.079 44.2486C45.079 45.2784 44.9089 46.1828 44.5686 46.9618C44.2373 47.7319 43.7716 48.3363 43.1717 48.7751C42.5717 49.2049 41.8688 49.4198 41.0629 49.4198ZM41.0763 47.7543C41.533 47.7543 41.9225 47.6155 42.2449 47.3379C42.5672 47.0514 42.8135 46.6484 42.9836 46.129C43.1627 45.6007 43.2523 44.9739 43.2523 44.2486C43.2523 43.5233 43.1627 42.9009 42.9836 42.3816C42.8135 41.8532 42.5628 41.4503 42.2314 41.1727C41.9091 40.8951 41.5151 40.7563 41.0494 40.7563C40.6017 40.7563 40.2167 40.8951 39.8943 41.1727C39.5719 41.4503 39.3212 41.8532 39.1421 42.3816C38.972 42.9009 38.8869 43.5233 38.8869 44.2486C38.8869 44.965 38.972 45.5873 39.1421 46.1156C39.3212 46.635 39.5719 47.0379 39.8943 47.3245C40.2256 47.611 40.6196 47.7543 41.0763 47.7543ZM50.5727 49.4198C49.7758 49.4198 49.0773 49.2049 48.4774 48.7751C47.8774 48.3453 47.4073 47.7409 47.067 46.9618C46.7357 46.1828 46.57 45.2784 46.57 44.2486C46.57 43.2099 46.7357 42.3054 47.067 41.5354C47.3983 40.7653 47.864 40.1653 48.4639 39.7355C49.0639 39.3057 49.7623 39.0908 50.5593 39.0908C51.3742 39.0908 52.0771 39.3057 52.6681 39.7355C53.2681 40.1653 53.7382 40.7697 54.0784 41.5488C54.4187 42.3189 54.5889 43.2188 54.5889 44.2486C54.5889 45.2784 54.4187 46.1828 54.0784 46.9618C53.7471 47.7319 53.2815 48.3363 52.6815 48.7751C52.0816 49.2049 51.3786 49.4198 50.5727 49.4198ZM50.5862 47.7543C51.0428 47.7543 51.4324 47.6155 51.7547 47.3379C52.0771 47.0514 52.3233 46.6484 52.4935 46.129C52.6726 45.6007 52.7621 44.9739 52.7621 44.2486C52.7621 43.5233 52.6726 42.9009 52.4935 42.3816C52.3233 41.8532 52.0726 41.4503 51.7413 41.1727C51.4189 40.8951 51.0249 40.7563 50.5593 40.7563C50.1116 40.7563 49.7265 40.8951 49.4042 41.1727C49.0818 41.4503 48.8311 41.8532 48.652 42.3816C48.4818 42.9009 48.3968 43.5233 48.3968 44.2486C48.3968 44.965 48.4818 45.5873 48.652 46.1156C48.8311 46.635 49.0818 47.0379 49.4042 47.3245C49.7355 47.611 50.1295 47.7543 50.5862 47.7543ZM57.9031 49.2587V47.8349L62.1475 42.9188L62.4162 43.5233H58.0911V41.9517H63.9742V43.3889L59.8104 48.305L59.5417 47.7006H64.0011V49.2587H57.9031ZM64.5847 46.0216V44.3023L68.5739 41.9652V43.6844L64.5847 46.0216ZM65.7129 49.2587V39.0908H67.4725V49.2587H65.7129Z" fill="#1F1A17"/>
<path d="M12.7355 66.6039V62.3796H11.7684V61.6005H13.6489V66.6039H12.7355ZM16.6598 66.6845C16.2613 66.6845 15.912 66.577 15.6121 66.3621C15.3121 66.1472 15.077 65.845 14.9069 65.4555C14.7412 65.0659 14.6584 64.6137 14.6584 64.0988C14.6584 63.5795 14.7412 63.1273 14.9069 62.7422C15.0726 62.3572 15.3054 62.0572 15.6054 61.8423C15.9053 61.6274 16.2546 61.5199 16.653 61.5199C17.0605 61.5199 17.4119 61.6274 17.7074 61.8423C18.0074 62.0572 18.2425 62.3594 18.4126 62.7489C18.5827 63.134 18.6678 63.584 18.6678 64.0988C18.6678 64.6137 18.5827 65.0659 18.4126 65.4555C18.247 65.8405 18.0141 66.1427 17.7142 66.3621C17.4142 66.577 17.0627 66.6845 16.6598 66.6845ZM16.6665 65.8517C16.8948 65.8517 17.0896 65.7823 17.2508 65.6435C17.4119 65.5002 17.5351 65.2988 17.6201 65.0391C17.7097 64.7749 17.7545 64.4615 17.7545 64.0988C17.7545 63.7362 17.7097 63.425 17.6201 63.1653C17.5351 62.9012 17.4097 62.6997 17.244 62.5609C17.0829 62.4221 16.8859 62.3527 16.653 62.3527C16.4292 62.3527 16.2367 62.4221 16.0755 62.5609C15.9143 62.6997 15.7889 62.9012 15.6994 63.1653C15.6143 63.425 15.5718 63.7362 15.5718 64.0988C15.5718 64.457 15.6143 64.7682 15.6994 65.0324C15.7889 65.292 15.9143 65.4935 16.0755 65.6368C16.2411 65.7801 16.4381 65.8517 16.6665 65.8517ZM19.4469 66.6039V61.5199H20.3267V64.851L19.9909 64.7503L21.7102 62.9504H22.8049L21.455 64.4212L22.8317 66.6039H21.8244L20.6289 64.71L21.1528 64.6025L20.0514 65.7845L20.3267 65.2473V66.6039H19.4469Z" fill="#D6D6D6"/>
<path d="M17.5396 82.5542V81.4528H15.2427V80.6872L17.4858 77.5508H18.4395V80.6872H19.1715V81.4528H18.4395V82.5542H17.5396ZM15.9143 81.0163L15.7531 80.6872H17.5396V78.2694L17.7746 78.3433L15.9143 81.0163ZM19.8048 82.5542V77.4702H20.6846V80.8013L20.3488 80.7006L22.0681 78.9007H23.1628L21.8129 80.3715L23.1897 82.5542H22.1823L20.9868 80.6603L21.5107 80.5529L20.4093 81.7349L20.6846 81.1976V82.5542H19.8048Z" fill="#D6D6D6"/>
<path d="M14.6968 98.5045V97.8128L16.0534 96.3957C16.3221 96.1136 16.528 95.8898 16.6713 95.7241C16.8191 95.554 16.922 95.4085 16.9802 95.2876C17.0385 95.1667 17.0676 95.0436 17.0676 94.9182C17.0676 94.7078 17.0004 94.5421 16.8661 94.4212C16.7362 94.3003 16.5683 94.2399 16.3624 94.2399C16.1475 94.2399 15.9617 94.3026 15.805 94.428C15.6483 94.5488 15.5341 94.7279 15.4624 94.9652L14.6633 94.7167C14.717 94.4526 14.8267 94.2242 14.9923 94.0317C15.158 93.8347 15.3595 93.6847 15.5968 93.5817C15.8385 93.4743 16.0937 93.4206 16.3624 93.4206C16.6847 93.4206 16.9668 93.4788 17.2086 93.5952C17.4548 93.7116 17.6451 93.875 17.7794 94.0854C17.9182 94.2959 17.9876 94.5421 17.9876 94.8242C17.9876 95.0033 17.9541 95.1801 17.8869 95.3547C17.8197 95.5294 17.719 95.7085 17.5847 95.892C17.4504 96.0711 17.2757 96.2726 17.0608 96.4965L15.8856 97.7322H18.0548V98.5045H14.6968ZM18.8048 98.5045V93.4206H19.6846V96.7517L19.3488 96.6509L21.0681 94.8511H22.1628L20.8129 96.3218L22.1897 98.5045H21.1823L19.9868 96.6106L20.5107 96.5032L19.4093 97.6852L19.6846 97.1479V98.5045H18.8048Z" fill="#D6D6D6"/>
<path d="M20.2519 115.375C19.8534 115.375 19.5042 115.267 19.2042 115.053C18.9042 114.838 18.6692 114.535 18.499 114.146C18.3334 113.756 18.2506 113.304 18.2506 112.789C18.2506 112.27 18.3334 111.818 18.499 111.433C18.6647 111.048 18.8975 110.748 19.1975 110.533C19.4975 110.318 19.8467 110.21 20.2452 110.21C20.6526 110.21 21.0041 110.318 21.2996 110.533C21.5996 110.748 21.8346 111.05 22.0048 111.439C22.1749 111.824 22.26 112.274 22.26 112.789C22.26 113.304 22.1749 113.756 22.0048 114.146C21.8391 114.531 21.6063 114.833 21.3063 115.053C21.0063 115.267 20.6549 115.375 20.2519 115.375ZM20.2586 114.542C20.487 114.542 20.6817 114.473 20.8429 114.334C21.0041 114.191 21.1272 113.989 21.2123 113.73C21.3018 113.465 21.3466 113.152 21.3466 112.789C21.3466 112.427 21.3018 112.115 21.2123 111.856C21.1272 111.592 21.0018 111.39 20.8362 111.251C20.675 111.113 20.478 111.043 20.2452 111.043C20.0213 111.043 19.8288 111.113 19.6676 111.251C19.5064 111.39 19.3811 111.592 19.2915 111.856C19.2065 112.115 19.1639 112.427 19.1639 112.789C19.1639 113.147 19.2065 113.459 19.2915 113.723C19.3811 113.982 19.5064 114.184 19.6676 114.327C19.8333 114.47 20.0303 114.542 20.2586 114.542Z" fill="#D6D6D6"/>
<path d="M37.8546 125.449C37.5367 125.449 37.2412 125.391 36.9681 125.274C36.6995 125.158 36.4667 124.997 36.2697 124.791C36.0771 124.58 35.9361 124.336 35.8466 124.059L36.6055 123.73C36.7263 124.016 36.901 124.242 37.1293 124.408C37.3576 124.569 37.6151 124.65 37.9016 124.65C38.0628 124.65 38.2016 124.625 38.318 124.576C38.4389 124.522 38.5307 124.45 38.5934 124.361C38.6605 124.271 38.6941 124.164 38.6941 124.039C38.6941 123.891 38.6493 123.77 38.5598 123.676C38.4747 123.577 38.3449 123.501 38.1703 123.448L37.2099 123.139C36.8204 123.018 36.5271 122.836 36.3301 122.595C36.1331 122.353 36.0346 122.069 36.0346 121.742C36.0346 121.455 36.104 121.202 36.2428 120.983C36.3861 120.763 36.5831 120.593 36.8338 120.472C37.089 120.347 37.38 120.284 37.7069 120.284C38.0068 120.284 38.2822 120.338 38.5329 120.446C38.7837 120.548 38.9986 120.694 39.1777 120.882C39.3612 121.066 39.4978 121.283 39.5873 121.533L38.8351 121.869C38.7366 121.619 38.5889 121.426 38.3919 121.292C38.1949 121.153 37.9666 121.084 37.7069 121.084C37.5546 121.084 37.4203 121.11 37.3039 121.164C37.1875 121.213 37.0957 121.285 37.0286 121.379C36.9659 121.469 36.9345 121.576 36.9345 121.701C36.9345 121.84 36.9793 121.963 37.0689 122.071C37.1584 122.174 37.295 122.254 37.4785 122.313L38.3986 122.601C38.7971 122.731 39.0948 122.91 39.2918 123.139C39.4933 123.367 39.594 123.649 39.594 123.985C39.594 124.271 39.5202 124.524 39.3724 124.744C39.2247 124.963 39.021 125.135 38.7613 125.261C38.5016 125.386 38.1994 125.449 37.8546 125.449Z" fill="#D6D6D6"/>
<path d="M29.3823 108.294C29.3823 106.903 30.5099 105.776 31.9008 105.776H43.6537C45.0446 105.776 46.1721 106.903 46.1721 108.294V115.85H29.3823V108.294Z" fill="white"/>
<path d="M55.0532 125.368V120.365H55.9263L57.8 122.91H57.3836L59.2171 120.365H60.0901V125.368H59.1701V121.406L59.526 121.493L57.6254 124.025H57.5179L55.6643 121.493L55.9666 121.406V125.368H55.0532Z" fill="#D6D6D6"/>
<path d="M49.53 103.257C49.53 101.866 50.6576 100.739 52.0485 100.739H63.8014C65.1923 100.739 66.3198 101.866 66.3198 103.257V115.85H49.53V103.257Z" fill="white"/>
<path d="M77.9441 125.368V121.171H76.6479V120.365H80.1402V121.171H78.8642V125.368H77.9441Z" fill="#D6D6D6"/>
<path d="M69.678 83.1097C69.678 81.7187 70.8055 80.5912 72.1964 80.5912H83.9493C85.3402 80.5912 86.4678 81.7187 86.4678 83.1097V115.85H69.678V83.1097Z" fill="white"/>
<path d="M96.3561 125.368L95.0129 120.365H95.9934L97.0478 124.63H96.7926L97.894 120.365H98.841L99.9356 124.63H99.6804L100.735 120.365H101.715L100.372 125.368H99.3245L98.2164 121.218H98.5119L97.4037 125.368H96.3561Z" fill="#D6D6D6"/>
<path d="M89.8257 92.344C89.8257 90.9531 90.9532 89.8256 92.3442 89.8256H104.097C105.488 89.8256 106.615 90.9531 106.615 92.344V115.85H89.8257V92.344Z" fill="#3734A9"/>
<path d="M118.24 125.368V121.171H116.943V120.365H120.436V121.171H119.16V125.368H118.24Z" fill="#D6D6D6"/>
<path d="M109.973 68.8383C109.973 67.4474 111.101 66.3198 112.492 66.3198H124.245C125.636 66.3198 126.763 67.4474 126.763 68.8383V115.85H109.973V68.8383Z" fill="#3734A9"/>
<path d="M138.193 125.368V120.365H141.53V121.171H139.106V122.554H141.228V123.36H139.106V125.368H138.193Z" fill="#D6D6D6"/>
<path d="M130.121 108.294C130.121 106.903 131.249 105.776 132.64 105.776H144.392C145.783 105.776 146.911 106.903 146.911 108.294V115.85H130.121V108.294Z" fill="white"/>
<path d="M158.741 125.449C158.423 125.449 158.128 125.391 157.855 125.274C157.586 125.158 157.353 124.997 157.156 124.791C156.964 124.58 156.823 124.336 156.733 124.059L157.492 123.73C157.613 124.016 157.788 124.242 158.016 124.408C158.244 124.569 158.502 124.65 158.788 124.65C158.95 124.65 159.088 124.625 159.205 124.576C159.326 124.522 159.417 124.45 159.48 124.361C159.547 124.271 159.581 124.164 159.581 124.039C159.581 123.891 159.536 123.77 159.447 123.676C159.361 123.577 159.232 123.501 159.057 123.448L158.097 123.139C157.707 123.018 157.414 122.836 157.217 122.595C157.02 122.353 156.921 122.069 156.921 121.742C156.921 121.455 156.991 121.202 157.13 120.983C157.273 120.763 157.47 120.593 157.721 120.472C157.976 120.347 158.267 120.284 158.594 120.284C158.894 120.284 159.169 120.338 159.42 120.446C159.67 120.548 159.885 120.694 160.064 120.882C160.248 121.066 160.385 121.283 160.474 121.533L159.722 121.869C159.623 121.619 159.476 121.426 159.279 121.292C159.082 121.153 158.853 121.084 158.594 121.084C158.441 121.084 158.307 121.11 158.191 121.164C158.074 121.213 157.982 121.285 157.915 121.379C157.853 121.469 157.821 121.576 157.821 121.701C157.821 121.84 157.866 121.963 157.956 122.071C158.045 122.174 158.182 122.254 158.365 122.313L159.285 122.601C159.684 122.731 159.982 122.91 160.179 123.139C160.38 123.367 160.481 123.649 160.481 123.985C160.481 124.271 160.407 124.524 160.259 124.744C160.111 124.963 159.908 125.135 159.648 125.261C159.388 125.386 159.086 125.449 158.741 125.449Z" fill="#D6D6D6"/>
<path d="M150.269 92.344C150.269 90.9531 151.397 89.8256 152.788 89.8256H164.54C165.931 89.8256 167.059 90.9531 167.059 92.344V115.85H150.269V92.344Z" fill="#3734A9"/>
<path d="M179.728 125.449C179.411 125.449 179.115 125.391 178.842 125.274C178.573 125.158 178.34 124.997 178.143 124.791C177.951 124.58 177.81 124.336 177.72 124.059L178.479 123.729C178.6 124.016 178.775 124.242 179.003 124.408C179.231 124.569 179.489 124.65 179.775 124.65C179.937 124.65 180.075 124.625 180.192 124.576C180.313 124.522 180.404 124.45 180.467 124.361C180.534 124.271 180.568 124.164 180.568 124.038C180.568 123.891 180.523 123.77 180.434 123.676C180.349 123.577 180.219 123.501 180.044 123.447L179.084 123.138C178.694 123.018 178.401 122.836 178.204 122.594C178.007 122.353 177.908 122.068 177.908 121.742C177.908 121.455 177.978 121.202 178.117 120.983C178.26 120.763 178.457 120.593 178.708 120.472C178.963 120.347 179.254 120.284 179.581 120.284C179.881 120.284 180.156 120.338 180.407 120.445C180.657 120.548 180.872 120.694 181.051 120.882C181.235 121.065 181.372 121.283 181.461 121.533L180.709 121.869C180.61 121.618 180.463 121.426 180.266 121.292C180.069 121.153 179.84 121.083 179.581 121.083C179.428 121.083 179.294 121.11 179.178 121.164C179.061 121.213 178.97 121.285 178.902 121.379C178.84 121.468 178.808 121.576 178.808 121.701C178.808 121.84 178.853 121.963 178.943 122.071C179.032 122.174 179.169 122.254 179.352 122.312L180.272 122.601C180.671 122.731 180.969 122.91 181.166 123.138C181.367 123.367 181.468 123.649 181.468 123.985C181.468 124.271 181.394 124.524 181.246 124.744C181.098 124.963 180.895 125.135 180.635 125.261C180.375 125.386 180.073 125.449 179.728 125.449Z" fill="#D6D6D6"/>
<path d="M170.417 79.7516C170.417 78.3607 171.544 77.2332 172.935 77.2332H184.688C186.079 77.2332 187.207 78.3607 187.207 79.7516V115.85H170.417V79.7516Z" fill="#3734A9"/>
<path d="M76.0041 43.7402V41.5466H73.8105V40.4553H76.0041V38.2835H77.0954V40.4553H79.2672V41.5466H77.0954V43.7402H76.0041ZM80.5834 43.7402V42.8126L82.8097 40.4335C83.2462 39.9678 83.5882 39.5932 83.8355 39.3094C84.0902 39.0184 84.2721 38.7637 84.3812 38.5455C84.4976 38.3272 84.5558 38.098 84.5558 37.8579C84.5558 37.465 84.4358 37.1631 84.1957 36.9521C83.9556 36.7338 83.6464 36.6247 83.268 36.6247C82.8752 36.6247 82.5368 36.7375 82.2531 36.963C81.9694 37.1813 81.7729 37.5014 81.6638 37.9234L80.5288 37.596C80.6161 37.1667 80.7907 36.7957 81.0526 36.4828C81.3145 36.1627 81.6347 35.9153 82.013 35.7407C82.3986 35.5661 82.8133 35.4788 83.2571 35.4788C83.7737 35.4788 84.2248 35.577 84.6104 35.7735C84.996 35.9626 85.2943 36.2282 85.5053 36.5701C85.7236 36.9121 85.8327 37.3086 85.8327 37.7597C85.8327 38.058 85.7745 38.349 85.6581 38.6328C85.5489 38.9092 85.378 39.2039 85.1451 39.5168C84.9123 39.8223 84.614 40.1679 84.2502 40.5535L82.2858 42.6489H85.9855V43.7402H80.5834ZM90.7534 43.7402V41.9068H86.8792V40.8373L90.6989 35.6098H91.9757V40.8373H93.0998V41.9068H91.9757V43.7402H90.7534ZM87.8286 41.3066L87.6213 40.8373H90.7534V36.6356L91.1027 36.7448L87.8286 41.3066ZM95.1241 43.7402L101.738 35.6098H103.113L96.4991 43.7402H95.1241ZM96.3682 39.735C95.968 39.735 95.6079 39.6404 95.2878 39.4513C94.9676 39.2548 94.7094 38.9966 94.5129 38.6764C94.3237 38.3563 94.2292 37.9998 94.2292 37.6069C94.2292 37.214 94.3237 36.8575 94.5129 36.5374C94.7094 36.21 94.9676 35.9517 95.2878 35.7626C95.6079 35.5734 95.968 35.4788 96.3682 35.4788C96.7683 35.4788 97.1285 35.5734 97.4486 35.7626C97.7687 35.9517 98.0234 36.21 98.2126 36.5374C98.4017 36.8575 98.4963 37.214 98.4963 37.6069C98.4963 37.9998 98.4017 38.3563 98.2126 38.6764C98.0234 38.9966 97.7687 39.2548 97.4486 39.4513C97.1285 39.6404 96.7683 39.735 96.3682 39.735ZM96.3682 38.7419C96.5937 38.7419 96.7865 38.6873 96.9466 38.5782C97.1139 38.4691 97.2413 38.3272 97.3286 38.1526C97.4159 37.978 97.4595 37.7961 97.4595 37.6069C97.4595 37.4105 97.4159 37.2286 97.3286 37.0612C97.2413 36.8866 97.1139 36.7448 96.9466 36.6356C96.7865 36.5265 96.5937 36.4719 96.3682 36.4719C96.1499 36.4719 95.9571 36.5265 95.7898 36.6356C95.6224 36.7448 95.4915 36.8866 95.3969 37.0612C95.3096 37.2286 95.2659 37.4105 95.2659 37.6069C95.2659 37.7961 95.3096 37.978 95.3969 38.1526C95.4915 38.3272 95.6224 38.4691 95.7898 38.5782C95.9571 38.6873 96.1499 38.7419 96.3682 38.7419ZM101.814 43.8712C101.414 43.8712 101.05 43.7766 100.723 43.5874C100.403 43.391 100.148 43.1327 99.9587 42.8126C99.7695 42.4925 99.6749 42.136 99.6749 41.7431C99.6749 41.3502 99.7695 40.9937 99.9587 40.6736C100.148 40.3462 100.403 40.0879 100.723 39.8987C101.05 39.7096 101.414 39.615 101.814 39.615C102.214 39.615 102.574 39.7096 102.894 39.8987C103.215 40.0879 103.469 40.3462 103.658 40.6736C103.847 40.9937 103.942 41.3502 103.942 41.7431C103.942 42.136 103.847 42.4925 103.658 42.8126C103.469 43.1327 103.215 43.391 102.894 43.5874C102.574 43.7766 102.214 43.8712 101.814 43.8712ZM101.814 42.8781C102.04 42.8781 102.232 42.8235 102.392 42.7144C102.552 42.6052 102.676 42.4634 102.763 42.2888C102.858 42.1141 102.905 41.9323 102.905 41.7431C102.905 41.5466 102.858 41.3648 102.763 41.1974C102.676 41.0228 102.552 40.8809 102.392 40.7718C102.232 40.6627 102.04 40.6081 101.814 40.6081C101.596 40.6081 101.403 40.6627 101.236 40.7718C101.068 40.8809 100.937 41.0228 100.843 41.1974C100.755 41.3648 100.712 41.5466 100.712 41.7431C100.712 41.9323 100.755 42.1141 100.843 42.2888C100.937 42.4634 101.068 42.6052 101.236 42.7144C101.403 42.8235 101.596 42.8781 101.814 42.8781Z" fill="#64CA71"/>
<path d="M14.332 25.2714L12.1762 17.7663H12.9921L14.8558 24.4856H14.6846L16.5986 17.7663H17.4549L19.3588 24.4856H19.1775L21.0512 17.7663H21.8672L19.7114 25.2714H18.8551L16.931 18.5219H17.1124L15.1882 25.2714H14.332ZM22.0067 25.2714V24.6166L25.2606 20.3352L25.4016 20.6273H22.1779V19.8718H26.0665V20.5266L22.8227 24.808L22.6816 24.5158H26.0866V25.2714H22.0067ZM27.0861 25.2714V19.8718H27.8417V20.7583L27.7409 20.6273C27.8685 20.3721 28.0599 20.1706 28.3151 20.0229C28.5771 19.8751 28.8927 19.8012 29.2621 19.8012H29.6046V20.5568H29.1311C28.7416 20.5568 28.4293 20.6777 28.1943 20.9194C27.9592 21.1612 27.8417 21.5037 27.8417 21.947V25.2714H27.0861ZM33.0186 25.3922C32.5081 25.3922 32.0447 25.2714 31.6284 25.0296C31.212 24.7811 30.8795 24.4453 30.631 24.0222C30.3893 23.5924 30.2684 23.1055 30.2684 22.5615C30.2684 22.0242 30.3893 21.544 30.631 21.1209C30.8728 20.6978 31.1985 20.3654 31.6082 20.1236C32.0246 19.8751 32.4947 19.7509 33.0186 19.7509C33.5424 19.7509 34.0092 19.8718 34.4188 20.1135C34.8352 20.3553 35.1609 20.6877 35.396 21.1108C35.6378 21.534 35.7586 22.0175 35.7586 22.5615C35.7586 23.1122 35.6344 23.6025 35.3859 24.0323C35.1374 24.4554 34.805 24.7878 34.3886 25.0296C33.9789 25.2714 33.5222 25.3922 33.0186 25.3922ZM33.0186 24.6367C33.3812 24.6367 33.7069 24.546 33.9957 24.3647C34.2912 24.1834 34.5229 23.9349 34.6908 23.6192C34.8654 23.3036 34.9527 22.951 34.9527 22.5615C34.9527 22.172 34.8654 21.8227 34.6908 21.5138C34.5229 21.2049 34.2912 20.9597 33.9957 20.7784C33.7069 20.5971 33.3812 20.5064 33.0186 20.5064C32.6559 20.5064 32.3268 20.5971 32.0313 20.7784C31.7425 20.9597 31.5108 21.2049 31.3362 21.5138C31.1616 21.8227 31.0743 22.172 31.0743 22.5615C31.0743 22.951 31.1616 23.3036 31.3362 23.6192C31.5108 23.9349 31.7425 24.1834 32.0313 24.3647C32.3268 24.546 32.6559 24.6367 33.0186 24.6367ZM38.9649 25.3922C38.4478 25.3922 37.9944 25.2613 37.6049 24.9994C37.2154 24.7374 36.9333 24.3815 36.7587 23.9315L37.3934 23.6293C37.5478 23.9584 37.7627 24.2203 38.0381 24.4151C38.3202 24.6098 38.6291 24.7072 38.9649 24.7072C39.2873 24.7072 39.5593 24.63 39.7809 24.4755C40.0025 24.3143 40.1133 24.1061 40.1133 23.8509C40.1133 23.6629 40.0596 23.5151 39.9521 23.4077C39.8447 23.2935 39.7204 23.2062 39.5794 23.1458C39.4384 23.0853 39.3141 23.0417 39.2067 23.0148L38.431 22.7932C37.934 22.6522 37.5747 22.454 37.3531 22.1988C37.1315 21.9436 37.0206 21.6481 37.0206 21.3123C37.0206 20.9967 37.1012 20.7213 37.2624 20.4863C37.4236 20.2512 37.6419 20.0699 37.9172 19.9423C38.1926 19.8147 38.4981 19.7509 38.8339 19.7509C39.2906 19.7509 39.7037 19.8718 40.073 20.1135C40.4491 20.3486 40.7144 20.6777 40.8689 21.1008L40.2241 21.403C40.0898 21.1008 39.8951 20.8657 39.6399 20.6978C39.3914 20.5232 39.1127 20.4359 38.8037 20.4359C38.5015 20.4359 38.2597 20.5131 38.0784 20.6676C37.8971 20.8221 37.8064 21.0168 37.8064 21.2519C37.8064 21.4332 37.8534 21.5776 37.9474 21.6851C38.0415 21.7925 38.1489 21.8731 38.2698 21.9268C38.3974 21.9806 38.5082 22.0209 38.6022 22.0477L39.4988 22.3096C39.9354 22.4372 40.2745 22.6354 40.5163 22.904C40.7648 23.1726 40.889 23.4883 40.889 23.8509C40.889 24.1464 40.8051 24.4117 40.6372 24.6468C40.476 24.8818 40.251 25.0665 39.9622 25.2008C39.6734 25.3284 39.341 25.3922 38.9649 25.3922ZM44.2818 25.3318C43.7982 25.3318 43.4255 25.1908 43.1636 24.9087C42.9017 24.6266 42.7707 24.2237 42.7707 23.6998V20.6273H41.7734V19.8718H42.0252C42.2536 19.8718 42.4349 19.7979 42.5692 19.6501C42.7035 19.4957 42.7707 19.3043 42.7707 19.0759V18.6226H43.5262V19.8718H44.715V20.6273H43.5262V23.6998C43.5262 23.8812 43.5531 24.0423 43.6068 24.1834C43.6606 24.3177 43.7512 24.4252 43.8788 24.5057C44.0131 24.5863 44.1911 24.6266 44.4127 24.6266C44.4665 24.6266 44.5303 24.6233 44.6042 24.6166C44.678 24.6098 44.7418 24.6031 44.7956 24.5964V25.2714C44.715 25.2915 44.6243 25.3049 44.5236 25.3117C44.4228 25.3251 44.3422 25.3318 44.2818 25.3318ZM49.7078 25.3922C49.1906 25.3922 48.7373 25.2613 48.3478 24.9994C47.9583 24.7374 47.6762 24.3815 47.5016 23.9315L48.1362 23.6293C48.2907 23.9584 48.5056 24.2203 48.781 24.4151C49.063 24.6098 49.372 24.7072 49.7078 24.7072C50.0301 24.7072 50.3021 24.63 50.5237 24.4755C50.7454 24.3143 50.8562 24.1061 50.8562 23.8509C50.8562 23.6629 50.8025 23.5151 50.695 23.4077C50.5875 23.2935 50.4633 23.2062 50.3223 23.1458C50.1812 23.0853 50.057 23.0417 49.9495 23.0148L49.1738 22.7932C48.6769 22.6522 48.3176 22.454 48.0959 22.1988C47.8743 21.9436 47.7635 21.6481 47.7635 21.3123C47.7635 20.9967 47.8441 20.7213 48.0053 20.4863C48.1665 20.2512 48.3847 20.0699 48.6601 19.9423C48.9354 19.8147 49.241 19.7509 49.5768 19.7509C50.0335 19.7509 50.4465 19.8718 50.8159 20.1135C51.192 20.3486 51.4573 20.6777 51.6117 21.1008L50.967 21.403C50.8327 21.1008 50.6379 20.8657 50.3827 20.6978C50.1342 20.5232 49.8555 20.4359 49.5466 20.4359C49.2444 20.4359 49.0026 20.5131 48.8213 20.6676C48.6399 20.8221 48.5493 21.0168 48.5493 21.2519C48.5493 21.4332 48.5963 21.5776 48.6903 21.6851C48.7843 21.7925 48.8918 21.8731 49.0127 21.9268C49.1403 21.9806 49.2511 22.0209 49.3451 22.0477L50.2417 22.3096C50.6782 22.4372 51.0174 22.6354 51.2591 22.904C51.5076 23.1726 51.6319 23.4883 51.6319 23.8509C51.6319 24.1464 51.5479 24.4117 51.38 24.6468C51.2188 24.8818 50.9939 25.0665 50.7051 25.2008C50.4163 25.3284 50.0838 25.3922 49.7078 25.3922ZM52.9595 27.2861V19.8718H53.715V21.0806L53.5941 20.8691C53.8091 20.5266 54.0945 20.2546 54.4504 20.0531C54.8131 19.8516 55.2261 19.7509 55.6895 19.7509C56.1999 19.7509 56.6533 19.8751 57.0495 20.1236C57.4524 20.3654 57.7681 20.6978 57.9964 21.1209C58.2315 21.544 58.349 22.0276 58.349 22.5716C58.349 23.1088 58.2315 23.5924 57.9964 24.0222C57.7681 24.4453 57.4524 24.7811 57.0495 25.0296C56.6533 25.2714 56.1999 25.3922 55.6895 25.3922C55.2261 25.3922 54.8064 25.2882 54.4303 25.08C54.0609 24.865 53.7822 24.5628 53.5941 24.1733L53.715 24.0625V27.2861H52.9595ZM55.6492 24.6367C56.0119 24.6367 56.3342 24.546 56.6163 24.3647C56.9051 24.1834 57.1301 23.9383 57.2913 23.6293C57.4592 23.3137 57.5431 22.9611 57.5431 22.5716C57.5431 22.1753 57.4592 21.8227 57.2913 21.5138C57.1301 21.2049 56.9051 20.9597 56.6163 20.7784C56.3342 20.5971 56.0119 20.5064 55.6492 20.5064C55.2866 20.5064 54.9575 20.5971 54.662 20.7784C54.3732 20.9597 54.1415 21.2082 53.9669 21.5239C53.799 21.8328 53.715 22.182 53.715 22.5716C53.715 22.9611 53.799 23.3137 53.9669 23.6293C54.1415 23.9383 54.3732 24.1834 54.662 24.3647C54.9575 24.546 55.2866 24.6367 55.6492 24.6367ZM59.6787 25.2714V19.8718H60.4342V20.7583L60.3335 20.6273C60.4611 20.3721 60.6525 20.1706 60.9077 20.0229C61.1696 19.8751 61.4853 19.8012 61.8547 19.8012H62.1972V20.5568H61.7237C61.3342 20.5568 61.0219 20.6777 60.7868 20.9194C60.5518 21.1612 60.4342 21.5037 60.4342 21.947V25.2714H59.6787ZM62.5285 25.2714V24.6166L65.7824 20.3352L65.9234 20.6273H62.6998V19.8718H66.5883V20.5266L63.3445 24.808L63.2035 24.5158H66.6084V25.2714H62.5285ZM70.066 25.3922C69.5623 25.3922 69.1056 25.2714 68.6959 25.0296C68.293 24.7811 67.974 24.4419 67.7389 24.0121C67.5038 23.5823 67.3863 23.0954 67.3863 22.5514C67.3863 22.0074 67.5005 21.5272 67.7288 21.1108C67.9572 20.6877 68.2661 20.3553 68.6556 20.1135C69.0519 19.8718 69.4951 19.7509 69.9854 19.7509C70.3749 19.7509 70.7208 19.8247 71.023 19.9725C71.3319 20.1135 71.5938 20.3083 71.8088 20.5568C72.0237 20.7986 72.1882 21.0739 72.3024 21.3828C72.4165 21.6851 72.4736 21.9973 72.4736 22.3197C72.4736 22.3869 72.4703 22.4641 72.4636 22.5514C72.4568 22.632 72.4468 22.716 72.4333 22.8033H67.8699V22.0981H72.0002L71.6375 22.4003C71.6979 22.0309 71.6543 21.7018 71.5065 21.4131C71.3655 21.1176 71.1607 20.8859 70.892 20.718C70.6234 20.5434 70.3212 20.456 69.9854 20.456C69.6496 20.456 69.3373 20.5434 69.0485 20.718C68.7664 20.8926 68.5448 21.1377 68.3836 21.4534C68.2225 21.7623 68.1587 22.1317 68.1922 22.5615C68.1587 22.9913 68.2258 23.3674 68.3937 23.6898C68.5683 24.0054 68.8034 24.2505 69.0989 24.4252C69.4011 24.5998 69.7235 24.6871 70.066 24.6871C70.4622 24.6871 70.7947 24.5931 71.0633 24.405C71.3319 24.217 71.5502 23.9819 71.7181 23.6998L72.3628 24.0423C72.2554 24.2841 72.0908 24.5091 71.8692 24.7173C71.6476 24.9188 71.3823 25.0833 71.0734 25.2109C70.7711 25.3318 70.4353 25.3922 70.066 25.3922ZM76.2436 25.3922C75.7399 25.3922 75.2866 25.2714 74.8837 25.0296C74.4807 24.7811 74.1617 24.4453 73.9266 24.0222C73.6983 23.5924 73.5841 23.1088 73.5841 22.5716C73.5841 22.0276 73.6983 21.544 73.9266 21.1209C74.1617 20.6978 74.4773 20.3654 74.8736 20.1236C75.2765 19.8751 75.7332 19.7509 76.2436 19.7509C76.707 19.7509 77.1201 19.8516 77.4827 20.0531C77.8454 20.2546 78.1308 20.5266 78.339 20.8691L78.2181 21.0806V17.6454H78.9737V25.2714H78.2181V24.0625L78.339 24.1733C78.151 24.5628 77.8689 24.865 77.4928 25.08C77.1234 25.2882 76.707 25.3922 76.2436 25.3922ZM76.2839 24.6367C76.6466 24.6367 76.9723 24.546 77.2611 24.3647C77.5566 24.1834 77.7883 23.9383 77.9562 23.6293C78.1308 23.3137 78.2181 22.9611 78.2181 22.5716C78.2181 22.182 78.1308 21.8328 77.9562 21.5239C77.7883 21.2082 77.5566 20.9597 77.2611 20.7784C76.9723 20.5971 76.6466 20.5064 76.2839 20.5064C75.928 20.5064 75.6056 20.5971 75.3168 20.7784C75.028 20.9597 74.7997 21.2049 74.6318 21.5138C74.4706 21.8227 74.39 22.1753 74.39 22.5716C74.39 22.9611 74.4706 23.3137 74.6318 23.6293C74.7997 23.9383 75.0247 24.1834 75.3068 24.3647C75.5955 24.546 75.9213 24.6367 76.2839 24.6367ZM82.0864 25.3922C81.7439 25.3922 81.4383 25.3284 81.1697 25.2008C80.901 25.0665 80.6895 24.8852 80.535 24.6569C80.3806 24.4285 80.3033 24.1666 80.3033 23.8711C80.3033 23.589 80.3638 23.3338 80.4847 23.1055C80.6055 22.8704 80.7936 22.6723 81.0488 22.5111C81.304 22.3499 81.6297 22.2358 82.026 22.1686L84.1415 21.816V22.501L82.2073 22.8234C81.8178 22.8906 81.5357 23.0148 81.3611 23.1961C81.1932 23.3775 81.1092 23.5924 81.1092 23.8409C81.1092 24.0826 81.2033 24.2875 81.3913 24.4554C81.5861 24.6233 81.8346 24.7072 82.1368 24.7072C82.5062 24.7072 82.8285 24.63 83.1039 24.4755C83.3792 24.3143 83.5941 24.0994 83.7486 23.8308C83.9031 23.5622 83.9803 23.2633 83.9803 22.9342V21.5642C83.9803 21.2418 83.8628 20.9799 83.6277 20.7784C83.3927 20.5769 83.0871 20.4762 82.711 20.4762C82.3819 20.4762 82.0931 20.5601 81.8446 20.728C81.5961 20.8892 81.4115 21.1008 81.2906 21.3627L80.6055 20.99C80.7063 20.7616 80.8641 20.5534 81.079 20.3654C81.3006 20.1773 81.5525 20.0296 81.8346 19.9221C82.1166 19.808 82.4088 19.7509 82.711 19.7509C83.1072 19.7509 83.4565 19.8281 83.7587 19.9826C84.0676 20.137 84.306 20.3519 84.4739 20.6273C84.6485 20.8959 84.7358 21.2082 84.7358 21.5642V25.2714H83.9803V24.1935L84.0911 24.3043C83.9971 24.5057 83.8493 24.6904 83.6479 24.8583C83.4531 25.0195 83.2214 25.1505 82.9528 25.2512C82.6908 25.3452 82.4021 25.3922 82.0864 25.3922ZM85.7358 25.2714V24.6166L88.9897 20.3352L89.1307 20.6273H85.9071V19.8718H89.7956V20.5266L86.5518 24.808L86.4108 24.5158H89.8158V25.2714H85.7358ZM87.2167 18.8241V17.8167H88.2241V18.8241H87.2167ZM90.9261 27.4876C90.8186 27.4876 90.7078 27.4775 90.5936 27.4574C90.4862 27.444 90.3787 27.4171 90.2713 27.3768V26.6716C90.3384 26.6783 90.4224 26.6884 90.5231 26.7019C90.6306 26.722 90.738 26.7321 90.8455 26.7321C91.1746 26.7321 91.4264 26.6616 91.601 26.5205C91.7756 26.3862 91.9469 26.1243 92.1148 25.7348L92.4573 24.9289L92.4372 25.5937L90.1504 19.8718H90.9664L92.8401 24.5964H92.6286L94.4922 19.8718H95.3284L92.8603 25.9564C92.7528 26.2183 92.6151 26.4668 92.4472 26.7019C92.2861 26.9369 92.0812 27.125 91.8327 27.266C91.5842 27.4137 91.282 27.4876 90.9261 27.4876Z" fill="#1F1A17"/>
</svg>
