<svg width="203" height="94" viewBox="0 0 203 94" fill="none" xmlns="http://www.w3.org/2000/svg">
<rect width="203" height="94" rx="8.39491" fill="white"/>
<circle cx="18.6524" cy="20.9873" r="6.71592" fill="#3734A9"/>
<path d="M36.5067 25.6082C35.9828 25.6082 35.4926 25.5142 35.0359 25.3261C34.5859 25.1314 34.1897 24.8627 33.8472 24.5202C33.5046 24.171 33.236 23.7613 33.0412 23.2912C32.8465 22.8144 32.7491 22.2939 32.7491 21.7297C32.7491 21.1656 32.8465 20.6485 33.0412 20.1784C33.236 19.7015 33.5046 19.2919 33.8472 18.9494C34.1897 18.6001 34.5859 18.3315 35.0359 18.1434C35.4926 17.9554 35.9828 17.8614 36.5067 17.8614C37.0305 17.8614 37.5174 17.9588 37.9674 18.1535C38.4241 18.3416 38.8237 18.6102 39.1662 18.9594C39.5087 19.3019 39.7773 19.7083 39.9721 20.1784C40.1668 20.6485 40.2642 21.1656 40.2642 21.7297C40.2642 22.2939 40.1668 22.8144 39.9721 23.2912C39.7773 23.7613 39.5087 24.171 39.1662 24.5202C38.8237 24.8627 38.4241 25.1314 37.9674 25.3261C37.5174 25.5142 37.0305 25.6082 36.5067 25.6082ZM36.5067 24.8526C36.9432 24.8526 37.3394 24.7721 37.6954 24.6109C38.058 24.4497 38.3703 24.2247 38.6323 23.9359C38.8942 23.6471 39.0957 23.3147 39.2367 22.9386C39.3844 22.5625 39.4583 22.1596 39.4583 21.7297C39.4583 21.3066 39.3844 20.907 39.2367 20.531C39.0957 20.1549 38.8942 19.8224 38.6323 19.5336C38.3703 19.2449 38.058 19.0199 37.6954 18.8587C37.3394 18.6975 36.9432 18.6169 36.5067 18.6169C36.0701 18.6169 35.6705 18.6975 35.3079 18.8587C34.9519 19.0199 34.643 19.2449 34.3811 19.5336C34.1192 19.8224 33.9143 20.1549 33.7666 20.531C33.6255 20.907 33.555 21.3066 33.555 21.7297C33.555 22.1596 33.6255 22.5625 33.7666 22.9386C33.9143 23.3147 34.1192 23.6471 34.3811 23.9359C34.643 24.2247 34.9553 24.4497 35.3179 24.6109C35.6806 24.7721 36.0768 24.8526 36.5067 24.8526ZM44.142 25.6082C43.6383 25.6082 43.1849 25.4873 42.782 25.2455C42.379 24.997 42.06 24.6612 41.825 24.2381C41.5966 23.8083 41.4825 23.3248 41.4825 22.7875C41.4825 22.2435 41.5966 21.76 41.825 21.3369C42.06 20.9138 42.3757 20.5813 42.7719 20.3395C43.1749 20.0911 43.6316 19.9668 44.142 19.9668C44.6054 19.9668 45.0184 20.0676 45.3811 20.269C45.7437 20.4705 46.0291 20.7425 46.2373 21.085L46.1164 21.2966V17.8614H46.872V25.4873H46.1164V24.2784L46.2373 24.3893C46.0493 24.7788 45.7672 25.081 45.3911 25.2959C45.0217 25.5041 44.6054 25.6082 44.142 25.6082ZM44.1823 24.8526C44.5449 24.8526 44.8706 24.762 45.1594 24.5807C45.4549 24.3993 45.6866 24.1542 45.8545 23.8453C46.0291 23.5296 46.1164 23.177 46.1164 22.7875C46.1164 22.398 46.0291 22.0488 45.8545 21.7398C45.6866 21.4242 45.4549 21.1757 45.1594 20.9944C44.8706 20.813 44.5449 20.7224 44.1823 20.7224C43.8263 20.7224 43.5039 20.813 43.2152 20.9944C42.9264 21.1757 42.698 21.4208 42.5301 21.7297C42.369 22.0387 42.2884 22.3913 42.2884 22.7875C42.2884 23.177 42.369 23.5296 42.5301 23.8453C42.698 24.1542 42.923 24.3993 43.2051 24.5807C43.4939 24.762 43.8196 24.8526 44.1823 24.8526ZM49.612 25.4873L47.7584 20.0877H48.6147L50.1459 24.8124H49.8437L51.2843 20.0877H52.0398L53.4804 24.8124H53.1782L54.7195 20.0877H55.5657L53.7121 25.4873H52.9565L51.5563 20.8634H51.7678L50.3675 25.4873H49.612ZM56.4509 25.4873V20.0877H57.2065V25.4873H56.4509ZM56.4509 19.0904V17.9823H57.2065V19.0904H56.4509ZM61.211 25.6082C60.7073 25.6082 60.2506 25.4873 59.8409 25.2455C59.438 24.997 59.119 24.6579 58.8839 24.2281C58.6489 23.7982 58.5313 23.3113 58.5313 22.7674C58.5313 22.2234 58.6455 21.7432 58.8738 21.3268C59.1022 20.9037 59.4111 20.5712 59.8006 20.3295C60.1969 20.0877 60.6401 19.9668 61.1304 19.9668C61.5199 19.9668 61.8658 20.0407 62.168 20.1884C62.4769 20.3295 62.7389 20.5242 62.9538 20.7727C63.1687 21.0145 63.3332 21.2899 63.4474 21.5988C63.5616 21.901 63.6186 22.2133 63.6186 22.5357C63.6186 22.6028 63.6153 22.68 63.6086 22.7674C63.6019 22.8479 63.5918 22.9319 63.5783 23.0192H59.0149V22.314H63.1452L62.7825 22.6162C62.843 22.2469 62.7993 21.9178 62.6515 21.629C62.5105 21.3335 62.3057 21.1018 62.037 20.9339C61.7684 20.7593 61.4662 20.672 61.1304 20.672C60.7946 20.672 60.4823 20.7593 60.1935 20.9339C59.9115 21.1085 59.6898 21.3537 59.5286 21.6693C59.3675 21.9782 59.3037 22.3476 59.3372 22.7774C59.3037 23.2072 59.3708 23.5833 59.5387 23.9057C59.7133 24.2214 59.9484 24.4665 60.2439 24.6411C60.5461 24.8157 60.8685 24.903 61.211 24.903C61.6072 24.903 61.9397 24.809 62.2083 24.621C62.4769 24.4329 62.6952 24.1978 62.8631 23.9158L63.5078 24.2583C63.4004 24.5001 63.2358 24.725 63.0142 24.9332C62.7926 25.1347 62.5273 25.2993 62.2184 25.4269C61.9162 25.5477 61.5804 25.6082 61.211 25.6082ZM67.3886 25.6082C66.8849 25.6082 66.4316 25.4873 66.0287 25.2455C65.6257 24.997 65.3067 24.6612 65.0716 24.2381C64.8433 23.8083 64.7291 23.3248 64.7291 22.7875C64.7291 22.2435 64.8433 21.76 65.0716 21.3369C65.3067 20.9138 65.6223 20.5813 66.0186 20.3395C66.4215 20.0911 66.8782 19.9668 67.3886 19.9668C67.852 19.9668 68.2651 20.0676 68.6277 20.269C68.9904 20.4705 69.2758 20.7425 69.484 21.085L69.3631 21.2966V17.8614H70.1187V25.4873H69.3631V24.2784L69.484 24.3893C69.296 24.7788 69.0139 25.081 68.6378 25.2959C68.2684 25.5041 67.852 25.6082 67.3886 25.6082ZM67.4289 24.8526C67.7916 24.8526 68.1173 24.762 68.4061 24.5807C68.7016 24.3993 68.9333 24.1542 69.1012 23.8453C69.2758 23.5296 69.3631 23.177 69.3631 22.7875C69.3631 22.398 69.2758 22.0488 69.1012 21.7398C68.9333 21.4242 68.7016 21.1757 68.4061 20.9944C68.1173 20.813 67.7916 20.7224 67.4289 20.7224C67.073 20.7224 66.7506 20.813 66.4618 20.9944C66.1731 21.1757 65.9447 21.4208 65.7768 21.7297C65.6156 22.0387 65.535 22.3913 65.535 22.7875C65.535 23.177 65.6156 23.5296 65.7768 23.8453C65.9447 24.1542 66.1697 24.3993 66.4518 24.5807C66.7405 24.762 67.0663 24.8526 67.4289 24.8526ZM71.1159 25.4873V24.8325L74.3698 20.5511L74.5108 20.8432H71.2871V20.0877H75.1757V20.7425L71.9319 25.0239L71.7908 24.7318H75.1958V25.4873H71.1159ZM76.1953 25.4873V20.0877H76.9509V25.4873H76.1953ZM76.1953 19.0904V17.9823H76.9509V19.0904H76.1953ZM78.4974 25.4873V20.0877H79.2529V21.1354L79.0817 21.0951C79.216 20.7459 79.4342 20.4705 79.7365 20.269C80.0454 20.0676 80.4013 19.9668 80.8043 19.9668C81.1871 19.9668 81.5296 20.0541 81.8318 20.2287C82.1408 20.4034 82.3825 20.6451 82.5572 20.9541C82.7385 21.2563 82.8291 21.5988 82.8291 21.9816V25.4873H82.0736V22.2737C82.0736 21.9447 82.0132 21.6659 81.8923 21.4376C81.7781 21.2093 81.6136 21.0346 81.3987 20.9138C81.1905 20.7862 80.9487 20.7224 80.6733 20.7224C80.398 20.7224 80.1529 20.7862 79.9379 20.9138C79.723 21.0346 79.5551 21.2126 79.4342 21.4477C79.3134 21.676 79.2529 21.9514 79.2529 22.2737V25.4873H78.4974ZM84.2846 27.7036C84.1771 27.7036 84.0663 27.6935 83.9522 27.6733C83.8447 27.6599 83.7372 27.633 83.6298 27.5927V26.8876C83.6969 26.8943 83.7809 26.9044 83.8816 26.9178C83.9891 26.9379 84.0965 26.948 84.204 26.948C84.5331 26.948 84.7849 26.8775 84.9595 26.7365C85.1342 26.6021 85.3054 26.3402 85.4733 25.9507L85.8158 25.1448L85.7957 25.8097L83.5089 20.0877H84.3249L86.1986 24.8124H85.9871L87.8507 20.0877H88.6869L86.2188 26.1723C86.1113 26.4343 85.9736 26.6827 85.8057 26.9178C85.6446 27.1529 85.4397 27.3409 85.1912 27.4819C84.9427 27.6297 84.6405 27.7036 84.2846 27.7036ZM92.4752 25.4873L90.6216 20.0877H91.4779L93.0091 24.8124H92.7069L94.1475 20.0877H94.903L96.3436 24.8124H96.0414L97.5827 20.0877H98.4289L96.5753 25.4873H95.8197L94.4195 20.8634H94.631L93.2307 25.4873H92.4752ZM103.091 25.5477C102.607 25.5477 102.235 25.4067 101.973 25.1246C101.711 24.8426 101.58 24.4396 101.58 23.9158V20.8432H100.583V20.0877H100.834C101.063 20.0877 101.244 20.0138 101.378 19.8661C101.513 19.7116 101.58 19.5202 101.58 19.2919V18.8385H102.335V20.0877H103.524V20.8432H102.335V23.9158C102.335 24.0971 102.362 24.2583 102.416 24.3993C102.47 24.5336 102.56 24.6411 102.688 24.7217C102.822 24.8023 103 24.8426 103.222 24.8426C103.276 24.8426 103.34 24.8392 103.413 24.8325C103.487 24.8258 103.551 24.8191 103.605 24.8124V25.4873C103.524 25.5075 103.434 25.5209 103.333 25.5276C103.232 25.541 103.151 25.5477 103.091 25.5477ZM105.042 27.7036C104.935 27.7036 104.824 27.6935 104.71 27.6733C104.602 27.6599 104.495 27.633 104.387 27.5927V26.8876C104.455 26.8943 104.539 26.9044 104.639 26.9178C104.747 26.9379 104.854 26.948 104.962 26.948C105.291 26.948 105.543 26.8775 105.717 26.7365C105.892 26.6021 106.063 26.3402 106.231 25.9507L106.574 25.1448L106.553 25.8097L104.267 20.0877H105.083L106.956 24.8124H106.745L108.608 20.0877H109.445L106.976 26.1723C106.869 26.4343 106.731 26.6827 106.563 26.9178C106.402 27.1529 106.197 27.3409 105.949 27.4819C105.7 27.6297 105.398 27.7036 105.042 27.7036ZM110.332 25.4873V20.0877H111.088V21.1152L110.967 20.9641C111.115 20.6485 111.333 20.4034 111.622 20.2287C111.917 20.0541 112.24 19.9668 112.589 19.9668C113.005 19.9668 113.381 20.0843 113.717 20.3194C114.053 20.5545 114.291 20.86 114.433 21.2361L114.221 21.2462C114.355 20.8298 114.587 20.5142 114.916 20.2993C115.252 20.0776 115.621 19.9668 116.024 19.9668C116.387 19.9668 116.719 20.0541 117.021 20.2287C117.33 20.4034 117.576 20.6451 117.757 20.9541C117.945 21.2563 118.039 21.5988 118.039 21.9816V25.4873H117.283V22.2737C117.283 21.9447 117.223 21.6659 117.102 21.4376C116.988 21.2093 116.83 21.0346 116.629 20.9138C116.427 20.7862 116.195 20.7224 115.934 20.7224C115.678 20.7224 115.447 20.7862 115.238 20.9138C115.03 21.0346 114.866 21.2126 114.745 21.4477C114.624 21.676 114.563 21.9514 114.563 22.2737V25.4873H113.808V22.2737C113.808 21.9447 113.747 21.6659 113.627 21.4376C113.512 21.2093 113.355 21.0346 113.153 20.9138C112.952 20.7862 112.72 20.7224 112.458 20.7224C112.196 20.7224 111.961 20.7862 111.753 20.9138C111.551 21.0346 111.39 21.2126 111.269 21.4477C111.148 21.676 111.088 21.9514 111.088 22.2737V25.4873H110.332ZM123.258 25.5477C122.775 25.5477 122.402 25.4067 122.14 25.1246C121.878 24.8426 121.747 24.4396 121.747 23.9158V20.8432H120.75V20.0877H121.002C121.23 20.0877 121.412 20.0138 121.546 19.8661C121.68 19.7116 121.747 19.5202 121.747 19.2919V18.8385H122.503V20.0877H123.692V20.8432H122.503V23.9158C122.503 24.0971 122.53 24.2583 122.584 24.3993C122.637 24.5336 122.728 24.6411 122.856 24.7217C122.99 24.8023 123.168 24.8426 123.389 24.8426C123.443 24.8426 123.507 24.8392 123.581 24.8325C123.655 24.8258 123.719 24.8191 123.772 24.8124V25.4873C123.692 25.5075 123.601 25.5209 123.5 25.5276C123.4 25.541 123.319 25.5477 123.258 25.5477ZM125.21 27.7036C125.102 27.7036 124.991 27.6935 124.877 27.6733C124.77 27.6599 124.662 27.633 124.555 27.5927V26.8876C124.622 26.8943 124.706 26.9044 124.807 26.9178C124.914 26.9379 125.022 26.948 125.129 26.948C125.458 26.948 125.71 26.8775 125.885 26.7365C126.059 26.6021 126.231 26.3402 126.398 25.9507L126.741 25.1448L126.721 25.8097L124.434 20.0877H125.25L127.124 24.8124H126.912L128.776 20.0877H129.612L127.144 26.1723C127.036 26.4343 126.899 26.6827 126.731 26.9178C126.57 27.1529 126.365 27.3409 126.116 27.4819C125.868 27.6297 125.566 27.7036 125.21 27.7036ZM132.96 27.7036C132.591 27.7036 132.248 27.6465 131.933 27.5323C131.624 27.4181 131.355 27.2603 131.127 27.0588C130.905 26.8641 130.734 26.6357 130.613 26.3738L131.308 26.0011C131.416 26.2563 131.607 26.4779 131.882 26.6659C132.158 26.854 132.51 26.948 132.94 26.948C133.269 26.948 133.571 26.8842 133.847 26.7566C134.122 26.629 134.344 26.441 134.512 26.1925C134.68 25.944 134.763 25.6384 134.763 25.2758V24.077L134.884 24.1878C134.696 24.5773 134.418 24.8795 134.048 25.0944C133.679 25.3026 133.276 25.4067 132.839 25.4067C132.336 25.4067 131.882 25.2858 131.479 25.0441C131.076 24.8023 130.757 24.4766 130.522 24.0669C130.294 23.6505 130.18 23.1905 130.18 22.6868C130.18 22.1764 130.294 21.7163 130.522 21.3066C130.757 20.897 131.073 20.5712 131.469 20.3295C131.872 20.0877 132.329 19.9668 132.839 19.9668C133.276 19.9668 133.672 20.0676 134.028 20.269C134.391 20.4705 134.676 20.7425 134.884 21.085L134.763 21.2966V20.0877H135.519V25.2758C135.519 25.7392 135.408 26.1522 135.187 26.5148C134.972 26.8842 134.669 27.173 134.28 27.3812C133.897 27.5961 133.457 27.7036 132.96 27.7036ZM132.88 24.6512C133.229 24.6512 133.545 24.5639 133.827 24.3893C134.109 24.2079 134.334 23.9695 134.502 23.674C134.676 23.3718 134.763 23.0427 134.763 22.6868C134.763 22.3308 134.676 22.0051 134.502 21.7096C134.334 21.4074 134.109 21.169 133.827 20.9944C133.545 20.813 133.229 20.7224 132.88 20.7224C132.524 20.7224 132.201 20.813 131.913 20.9944C131.624 21.169 131.395 21.404 131.228 21.6995C131.066 21.995 130.986 22.3241 130.986 22.6868C130.986 23.0427 131.066 23.3718 131.228 23.674C131.395 23.9695 131.62 24.2079 131.903 24.3893C132.191 24.5639 132.517 24.6512 132.88 24.6512ZM139.6 25.6082C139.09 25.6082 138.626 25.4873 138.21 25.2455C137.793 24.997 137.461 24.6612 137.213 24.2381C136.971 23.8083 136.85 23.3214 136.85 22.7774C136.85 22.2402 136.971 21.76 137.213 21.3369C137.454 20.9138 137.78 20.5813 138.19 20.3395C138.606 20.0911 139.076 19.9668 139.6 19.9668C140.124 19.9668 140.591 20.0877 141 20.3295C141.417 20.5712 141.742 20.9037 141.977 21.3268C142.219 21.7499 142.34 22.2334 142.34 22.7774C142.34 23.3281 142.216 23.8184 141.967 24.2482C141.719 24.6713 141.386 25.0038 140.97 25.2455C140.56 25.4873 140.104 25.6082 139.6 25.6082ZM139.6 24.8526C139.963 24.8526 140.288 24.762 140.577 24.5807C140.873 24.3993 141.104 24.1508 141.272 23.8352C141.447 23.5195 141.534 23.167 141.534 22.7774C141.534 22.3879 141.447 22.0387 141.272 21.7297C141.104 21.4208 140.873 21.1757 140.577 20.9944C140.288 20.813 139.963 20.7224 139.6 20.7224C139.237 20.7224 138.908 20.813 138.613 20.9944C138.324 21.1757 138.092 21.4208 137.918 21.7297C137.743 22.0387 137.656 22.3879 137.656 22.7774C137.656 23.167 137.743 23.5195 137.918 23.8352C138.092 24.1508 138.324 24.3993 138.613 24.5807C138.908 24.762 139.237 24.8526 139.6 24.8526ZM146.111 25.6082C145.607 25.6082 145.154 25.4873 144.751 25.2455C144.348 24.997 144.029 24.6612 143.794 24.2381C143.565 23.8083 143.451 23.3248 143.451 22.7875C143.451 22.2435 143.565 21.76 143.794 21.3369C144.029 20.9138 144.344 20.5813 144.74 20.3395C145.143 20.0911 145.6 19.9668 146.111 19.9668C146.574 19.9668 146.987 20.0676 147.35 20.269C147.712 20.4705 147.998 20.7425 148.206 21.085L148.085 21.2966V17.8614H148.841V25.4873H148.085V24.2784L148.206 24.3893C148.018 24.7788 147.736 25.081 147.36 25.2959C146.99 25.5041 146.574 25.6082 146.111 25.6082ZM146.151 24.8526C146.513 24.8526 146.839 24.762 147.128 24.5807C147.424 24.3993 147.655 24.1542 147.823 23.8453C147.998 23.5296 148.085 23.177 148.085 22.7875C148.085 22.398 147.998 22.0488 147.823 21.7398C147.655 21.4242 147.424 21.1757 147.128 20.9944C146.839 20.813 146.513 20.7224 146.151 20.7224C145.795 20.7224 145.473 20.813 145.184 20.9944C144.895 21.1757 144.667 21.4208 144.499 21.7297C144.338 22.0387 144.257 22.3913 144.257 22.7875C144.257 23.177 144.338 23.5296 144.499 23.8453C144.667 24.1542 144.892 24.3993 145.174 24.5807C145.462 24.762 145.788 24.8526 146.151 24.8526ZM150.392 25.4873V20.0877H151.147V21.1354L150.976 21.0951C151.11 20.7459 151.329 20.4705 151.631 20.269C151.94 20.0676 152.296 19.9668 152.699 19.9668C153.082 19.9668 153.424 20.0541 153.726 20.2287C154.035 20.4034 154.277 20.6451 154.452 20.9541C154.633 21.2563 154.724 21.5988 154.724 21.9816V25.4873H153.968V22.2737C153.968 21.9447 153.908 21.6659 153.787 21.4376C153.673 21.2093 153.508 21.0346 153.293 20.9138C153.085 20.7862 152.843 20.7224 152.568 20.7224C152.292 20.7224 152.047 20.7862 151.832 20.9138C151.618 21.0346 151.45 21.2126 151.329 21.4477C151.208 21.676 151.147 21.9514 151.147 22.2737V25.4873H150.392ZM156.167 25.4873V20.0877H156.922V25.4873H156.167ZM156.167 19.0904V17.9823H156.922V19.0904H156.167ZM160.383 25.6082C160.007 25.6082 159.664 25.5209 159.355 25.3463C159.046 25.1649 158.801 24.9165 158.62 24.6008C158.445 24.2784 158.358 23.9091 158.358 23.4927V20.0877H159.113V23.402C159.113 23.6908 159.17 23.946 159.285 24.1676C159.406 24.3825 159.57 24.5504 159.778 24.6713C159.993 24.7922 160.238 24.8526 160.514 24.8526C160.789 24.8526 161.034 24.7922 161.249 24.6713C161.464 24.5437 161.632 24.3657 161.753 24.1374C161.874 23.9023 161.934 23.6236 161.934 23.3013V20.0877H162.69V25.4873H161.934V24.4396L162.105 24.4799C161.978 24.8291 161.759 25.1045 161.451 25.306C161.142 25.5075 160.786 25.6082 160.383 25.6082Z" fill="#1F1A17"/>
<path d="M15.8721 57.8147C15.3258 57.8147 14.8065 57.7162 14.314 57.5192C13.8304 57.3133 13.414 57.0267 13.0648 56.6596C12.7245 56.2835 12.4917 55.8403 12.3663 55.3299L13.9647 54.7657C14.1259 55.2224 14.3722 55.5716 14.7035 55.8134C15.0348 56.0462 15.4243 56.1626 15.8721 56.1626C16.2302 56.1626 16.5392 56.0955 16.7989 55.9612C17.0675 55.8268 17.2779 55.6343 17.4301 55.3836C17.5824 55.1239 17.6585 54.8194 17.6585 54.4702C17.6585 54.121 17.5824 53.8255 17.4301 53.5837C17.2869 53.333 17.0809 53.1405 16.8123 53.0061C16.5436 52.8718 16.2258 52.8047 15.8586 52.8047C15.6885 52.8047 15.5094 52.8226 15.3213 52.8584C15.1423 52.8942 14.9811 52.9479 14.8378 53.0196L14.4214 52.1465L17.0138 49.1915H12.9305V47.6468H19.0688V49.084L16.4631 52.1331L16.4899 51.4481C17.0899 51.457 17.6137 51.5868 18.0614 51.8376C18.5092 52.0883 18.8584 52.4331 19.1091 52.8718C19.3599 53.3106 19.4852 53.8255 19.4852 54.4165C19.4852 55.0612 19.3285 55.6433 19.0151 56.1626C18.7017 56.673 18.2719 57.076 17.7257 57.3715C17.1794 57.667 16.5616 57.8147 15.8721 57.8147ZM24.2042 57.8147C23.5237 57.8147 22.9192 57.6715 22.3909 57.3849C21.8715 57.0894 21.4641 56.6954 21.1686 56.2029C20.8731 55.7015 20.7254 55.1329 20.7254 54.4971C20.7254 54.1747 20.7567 53.8524 20.8194 53.53C20.891 53.2076 21.0164 52.8629 21.1955 52.4957C21.3835 52.1286 21.6522 51.7212 22.0014 51.2734L24.7952 47.6468H26.9712L23.5729 52.0122L23.2774 51.6898C23.4028 51.5913 23.5326 51.5152 23.6669 51.4615C23.8013 51.3988 23.9356 51.354 24.0699 51.3272C24.2132 51.3003 24.3609 51.2869 24.5131 51.2869C25.1221 51.2869 25.6638 51.4257 26.1384 51.7033C26.613 51.9808 26.9846 52.3614 27.2532 52.845C27.5308 53.3196 27.6696 53.8568 27.6696 54.4568C27.6696 55.1015 27.5219 55.6791 27.2264 56.1895C26.9309 56.6909 26.519 57.0894 25.9906 57.3849C25.4713 57.6715 24.8758 57.8147 24.2042 57.8147ZM24.2042 56.1626C24.5087 56.1626 24.7818 56.0955 25.0236 55.9612C25.2743 55.8179 25.4713 55.6164 25.6146 55.3567C25.7668 55.097 25.8429 54.806 25.8429 54.4836C25.8429 54.1434 25.7668 53.8524 25.6146 53.6106C25.4713 53.3599 25.2788 53.1628 25.037 53.0196C24.7952 52.8763 24.5176 52.8047 24.2042 52.8047C23.8998 52.8047 23.6222 52.8763 23.3714 53.0196C23.1207 53.1628 22.9192 53.3599 22.767 53.6106C22.6237 53.8524 22.5521 54.1434 22.5521 54.4836C22.5521 54.806 22.6237 55.097 22.767 55.3567C22.9192 55.6164 23.1207 55.8179 23.3714 55.9612C23.6222 56.0955 23.8998 56.1626 24.2042 56.1626ZM32.2843 57.8147C31.6038 57.8147 30.9993 57.6715 30.471 57.3849C29.9516 57.0894 29.5442 56.6954 29.2487 56.2029C28.9532 55.7015 28.8055 55.1329 28.8055 54.4971C28.8055 54.1747 28.8368 53.8524 28.8995 53.53C28.9711 53.2076 29.0965 52.8629 29.2756 52.4957C29.4636 52.1286 29.7323 51.7212 30.0815 51.2734L32.8753 47.6468H35.0513L31.653 52.0122L31.3575 51.6898C31.4829 51.5913 31.6127 51.5152 31.747 51.4615C31.8813 51.3988 32.0157 51.354 32.15 51.3272C32.2933 51.3003 32.441 51.2869 32.5932 51.2869C33.2021 51.2869 33.7439 51.4257 34.2185 51.7033C34.6931 51.9808 35.0647 52.3614 35.3333 52.845C35.6109 53.3196 35.7497 53.8568 35.7497 54.4568C35.7497 55.1015 35.602 55.6791 35.3065 56.1895C35.011 56.6909 34.5991 57.0894 34.0707 57.3849C33.5514 57.6715 32.9559 57.8147 32.2843 57.8147ZM32.2843 56.1626C32.5888 56.1626 32.8619 56.0955 33.1036 55.9612C33.3544 55.8179 33.5514 55.6164 33.6946 55.3567C33.8469 55.097 33.923 54.806 33.923 54.4836C33.923 54.1434 33.8469 53.8524 33.6946 53.6106C33.5514 53.3599 33.3589 53.1628 33.1171 53.0196C32.8753 52.8763 32.5977 52.8047 32.2843 52.8047C31.9798 52.8047 31.7023 52.8763 31.4515 53.0196C31.2008 53.1628 30.9993 53.3599 30.8471 53.6106C30.7038 53.8524 30.6322 54.1434 30.6322 54.4836C30.6322 54.806 30.7038 55.097 30.8471 55.3567C30.9993 55.6164 31.2008 55.8179 31.4515 55.9612C31.7023 56.0955 31.9798 56.1626 32.2843 56.1626ZM40.5524 57.8147C39.8271 57.8147 39.1958 57.6804 38.6586 57.4118C38.1302 57.1342 37.7183 56.7626 37.4228 56.2969C37.1363 55.8313 36.993 55.3209 36.993 54.7657C36.993 54.112 37.1676 53.5613 37.5168 53.1136C37.8661 52.6569 38.372 52.3211 39.0346 52.1062L38.9272 52.5495C38.4526 52.3972 38.0765 52.1017 37.7989 51.663C37.5303 51.2242 37.396 50.7406 37.396 50.2123C37.396 49.684 37.5303 49.2139 37.7989 48.802C38.0676 48.3901 38.4392 48.0677 38.9138 47.8349C39.3884 47.6021 39.9346 47.4857 40.5524 47.4857C41.1614 47.4857 41.6986 47.6021 42.1643 47.8349C42.6389 48.0677 43.0105 48.3901 43.2791 48.802C43.5567 49.2139 43.6955 49.684 43.6955 50.2123C43.6955 50.7496 43.5567 51.2376 43.2791 51.6764C43.0105 52.1062 42.6389 52.4017 42.1643 52.5629L42.0702 52.0928C42.7329 52.3256 43.2388 52.6703 43.588 53.127C43.9373 53.5748 44.1119 54.1255 44.1119 54.7791C44.1119 55.3343 43.9641 55.8447 43.6686 56.3104C43.3821 56.7671 42.9702 57.1342 42.4329 57.4118C41.9046 57.6804 41.2778 57.8147 40.5524 57.8147ZM40.5524 56.2701C40.9017 56.2701 41.2061 56.2074 41.4658 56.082C41.7255 55.9477 41.927 55.7642 42.0702 55.5313C42.2135 55.2896 42.2852 55.0164 42.2852 54.712C42.2852 54.3986 42.2135 54.1299 42.0702 53.9061C41.927 53.6733 41.7255 53.4942 41.4658 53.3688C41.2061 53.2345 40.9017 53.1673 40.5524 53.1673C40.2032 53.1673 39.8988 53.2345 39.6391 53.3688C39.3884 53.4942 39.1914 53.6733 39.0481 53.9061C38.9048 54.1299 38.8332 54.3986 38.8332 54.712C38.8332 55.0164 38.9048 55.2896 39.0481 55.5313C39.1914 55.7642 39.3884 55.9477 39.6391 56.082C39.8988 56.2074 40.2032 56.2701 40.5524 56.2701ZM40.5524 51.6227C40.8121 51.6227 41.0405 51.5645 41.2375 51.4481C41.4345 51.3316 41.5867 51.1794 41.6942 50.9914C41.8106 50.7944 41.8688 50.5705 41.8688 50.3198C41.8688 50.069 41.8106 49.8497 41.6942 49.6616C41.5867 49.4646 41.4345 49.3124 41.2375 49.2049C41.0405 49.0885 40.8121 49.0303 40.5524 49.0303C40.2928 49.0303 40.0599 49.0885 39.854 49.2049C39.657 49.3124 39.5003 49.4646 39.3839 49.6616C39.2764 49.8497 39.2227 50.069 39.2227 50.3198C39.2227 50.5705 39.2764 50.7944 39.3839 50.9914C39.5003 51.1794 39.657 51.3316 39.854 51.4481C40.0599 51.5645 40.2928 51.6227 40.5524 51.6227ZM49.5496 57.8147C48.7526 57.8147 48.0542 57.5998 47.4542 57.17C46.8543 56.7402 46.3841 56.1358 46.0439 55.3567C45.7126 54.5777 45.5469 53.6733 45.5469 52.6435C45.5469 51.6048 45.7126 50.7003 46.0439 49.9303C46.3752 49.1602 46.8408 48.5602 47.4408 48.1304C48.0407 47.7006 48.7392 47.4857 49.5362 47.4857C50.351 47.4857 51.0539 47.7006 51.645 48.1304C52.2449 48.5602 52.715 49.1646 53.0553 49.9437C53.3956 50.7138 53.5657 51.6137 53.5657 52.6435C53.5657 53.6733 53.3956 54.5777 53.0553 55.3567C52.724 56.1268 52.2583 56.7312 51.6584 57.17C51.0584 57.5998 50.3555 57.8147 49.5496 57.8147ZM49.563 56.1492C50.0197 56.1492 50.4092 56.0104 50.7316 55.7328C51.0539 55.4463 51.3002 55.0433 51.4703 54.5239C51.6494 53.9956 51.739 53.3688 51.739 52.6435C51.739 51.9182 51.6494 51.2958 51.4703 50.7765C51.3002 50.2481 51.0495 49.8452 50.7182 49.5676C50.3958 49.29 50.0018 49.1512 49.5362 49.1512C49.0884 49.1512 48.7034 49.29 48.381 49.5676C48.0586 49.8452 47.8079 50.2481 47.6288 50.7765C47.4587 51.2958 47.3736 51.9182 47.3736 52.6435C47.3736 53.3599 47.4587 53.9822 47.6288 54.5105C47.8079 55.0299 48.0586 55.4328 48.381 55.7194C48.7123 56.0059 49.1063 56.1492 49.563 56.1492ZM61.5139 57.8147C60.7438 57.8147 60.0588 57.6536 59.4588 57.3312C58.8678 57.0088 58.4022 56.5656 58.0619 56.0014C57.7216 55.4373 57.5515 54.7971 57.5515 54.0807V47.6468H59.3782V53.9867C59.3782 54.3986 59.4678 54.7702 59.6469 55.1015C59.8349 55.4328 60.0901 55.6925 60.4125 55.8806C60.7348 56.0597 61.102 56.1492 61.5139 56.1492C61.9348 56.1492 62.3019 56.0597 62.6153 55.8806C62.9377 55.6925 63.1884 55.4328 63.3675 55.1015C63.5555 54.7702 63.6496 54.3986 63.6496 53.9867V47.6468H65.4763V54.0807C65.4763 54.7971 65.3062 55.4373 64.9659 56.0014C64.6256 56.5656 64.1555 57.0088 63.5555 57.3312C62.9645 57.6536 62.284 57.8147 61.5139 57.8147ZM71.1549 57.8147C70.3848 57.8147 69.6998 57.6536 69.0998 57.3312C68.5088 57.0088 68.0432 56.5656 67.7029 56.0014C67.3627 55.4373 67.1925 54.7971 67.1925 54.0807V47.6468H69.0193V53.9867C69.0193 54.3986 69.1088 54.7702 69.2879 55.1015C69.4759 55.4328 69.7311 55.6925 70.0535 55.8806C70.3759 56.0597 70.743 56.1492 71.1549 56.1492C71.5758 56.1492 71.9429 56.0597 72.2563 55.8806C72.5787 55.6925 72.8294 55.4328 73.0085 55.1015C73.1966 54.7702 73.2906 54.3986 73.2906 53.9867V47.6468H75.1173V54.0807C75.1173 54.7971 74.9472 55.4373 74.6069 56.0014C74.2666 56.5656 73.7965 57.0088 73.1966 57.3312C72.6056 57.6536 71.925 57.8147 71.1549 57.8147Z" fill="black"/>
<path d="M13.8254 71.9618L12.0289 65.7076H12.7089L14.2619 71.307H14.1192L15.7142 65.7076H16.4278L18.0144 71.307H17.8633L19.4248 65.7076H20.1048L18.3083 71.9618H17.5947L15.9913 66.3372H16.1424L14.5389 71.9618H13.8254ZM22.2731 73.6408V67.4621H22.9028V68.4695L22.802 68.2932C22.9811 68.0078 23.219 67.7811 23.5156 67.6132C23.8178 67.4453 24.162 67.3614 24.5482 67.3614C24.9735 67.3614 25.3513 67.4649 25.6815 67.672C26.0173 67.8735 26.2803 68.1505 26.4706 68.5031C26.6665 68.8557 26.7644 69.2586 26.7644 69.712C26.7644 70.1597 26.6665 70.5626 26.4706 70.9208C26.2803 71.2734 26.0173 71.5532 25.6815 71.7603C25.3513 71.9618 24.9735 72.0625 24.5482 72.0625C24.162 72.0625 23.8122 71.9758 23.4988 71.8023C23.191 71.6232 22.9587 71.3714 22.802 71.0467L22.9028 70.9544V73.6408H22.2731ZM24.5146 71.4329C24.8168 71.4329 25.0854 71.3574 25.3205 71.2063C25.5611 71.0551 25.7486 70.8509 25.883 70.5934C26.0229 70.3304 26.0928 70.0366 26.0928 69.712C26.0928 69.3818 26.0229 69.0879 25.883 68.8305C25.7486 68.573 25.5611 68.3688 25.3205 68.2177C25.0854 68.0666 24.8168 67.991 24.5146 67.991C24.2124 67.991 23.9381 68.0666 23.6919 68.2177C23.4512 68.3688 23.2581 68.5758 23.1126 68.8389C22.9727 69.0963 22.9028 69.3874 22.9028 69.712C22.9028 70.0366 22.9727 70.3304 23.1126 70.5934C23.2581 70.8509 23.4512 71.0551 23.6919 71.2063C23.9381 71.3574 24.2124 71.4329 24.5146 71.4329ZM29.9796 72.0625C29.5543 72.0625 29.1681 71.9618 28.8211 71.7603C28.4741 71.5532 28.1971 71.2734 27.99 70.9208C27.7885 70.5626 27.6878 70.1569 27.6878 69.7036C27.6878 69.2558 27.7885 68.8557 27.99 68.5031C28.1915 68.1505 28.4629 67.8735 28.8043 67.672C29.1513 67.4649 29.5431 67.3614 29.9796 67.3614C30.4161 67.3614 30.8051 67.4621 31.1465 67.6636C31.4935 67.8651 31.7649 68.1421 31.9608 68.4947C32.1623 68.8473 32.263 69.2502 32.263 69.7036C32.263 70.1625 32.1595 70.571 31.9524 70.9292C31.7453 71.2818 31.4683 71.5588 31.1213 71.7603C30.7799 71.9618 30.3993 72.0625 29.9796 72.0625ZM29.9796 71.4329C30.2818 71.4329 30.5533 71.3574 30.7939 71.2063C31.0402 71.0551 31.2332 70.8481 31.3732 70.585C31.5187 70.322 31.5914 70.0282 31.5914 69.7036C31.5914 69.379 31.5187 69.0879 31.3732 68.8305C31.2332 68.573 31.0402 68.3688 30.7939 68.2177C30.5533 68.0666 30.2818 67.991 29.9796 67.991C29.6774 67.991 29.4032 68.0666 29.1569 68.2177C28.9162 68.3688 28.7232 68.573 28.5777 68.8305C28.4321 69.0879 28.3594 69.379 28.3594 69.7036C28.3594 70.0282 28.4321 70.322 28.5777 70.585C28.7232 70.8481 28.9162 71.0551 29.1569 71.2063C29.4032 71.3574 29.6774 71.4329 29.9796 71.4329ZM33.3734 71.9618V67.4621H34.0031V68.2009L33.9191 68.0917C34.0254 67.8791 34.1849 67.7112 34.3976 67.588C34.6159 67.4649 34.8789 67.4034 35.1867 67.4034H35.4722V68.033H35.0776C34.753 68.033 34.4928 68.1337 34.2969 68.3352C34.101 68.5367 34.0031 68.8221 34.0031 69.1915V71.9618H33.3734ZM38.3171 72.0625C37.8918 72.0625 37.5056 71.9618 37.1586 71.7603C36.8116 71.5532 36.5346 71.2734 36.3275 70.9208C36.126 70.5626 36.0253 70.1569 36.0253 69.7036C36.0253 69.2558 36.126 68.8557 36.3275 68.5031C36.529 68.1505 36.8004 67.8735 37.1418 67.672C37.4888 67.4649 37.8806 67.3614 38.3171 67.3614C38.7537 67.3614 39.1426 67.4621 39.484 67.6636C39.831 67.8651 40.1024 68.1421 40.2983 68.4947C40.4998 68.8473 40.6005 69.2502 40.6005 69.7036C40.6005 70.1625 40.497 70.571 40.2899 70.9292C40.0828 71.2818 39.8058 71.5588 39.4588 71.7603C39.1174 71.9618 38.7369 72.0625 38.3171 72.0625ZM38.3171 71.4329C38.6193 71.4329 38.8908 71.3574 39.1314 71.2063C39.3777 71.0551 39.5708 70.8481 39.7107 70.585C39.8562 70.322 39.9289 70.0282 39.9289 69.7036C39.9289 69.379 39.8562 69.0879 39.7107 68.8305C39.5708 68.573 39.3777 68.3688 39.1314 68.2177C38.8908 68.0666 38.6193 67.991 38.3171 67.991C38.0149 67.991 37.7407 68.0666 37.4944 68.2177C37.2538 68.3688 37.0607 68.573 36.9152 68.8305C36.7697 69.0879 36.6969 69.379 36.6969 69.7036C36.6969 70.0282 36.7697 70.322 36.9152 70.585C37.0607 70.8481 37.2538 71.0551 37.4944 71.2063C37.7407 71.3574 38.0149 71.4329 38.3171 71.4329ZM37.9981 66.5891L38.7285 65.3298H39.5931L38.6361 66.5891H37.9981ZM42.6196 71.9618L41.0749 67.4621H41.7885L43.0645 71.3993H42.8127L44.0131 67.4621H44.6427L45.8432 71.3993H45.5914L46.8758 67.4621H47.581L46.0363 71.9618H45.4067L44.2398 68.1085H44.4161L43.2492 71.9618H42.6196ZM48.3187 71.9618V67.4621H48.9483V68.3352L48.8056 68.3016C48.9175 68.0106 49.0994 67.7811 49.3512 67.6132C49.6087 67.4453 49.9053 67.3614 50.2411 67.3614C50.5601 67.3614 50.8455 67.4341 51.0974 67.5797C51.3548 67.7252 51.5563 67.9266 51.7018 68.1841C51.8529 68.4359 51.9285 68.7214 51.9285 69.0404V71.9618H51.2989V69.2838C51.2989 69.0096 51.2485 68.7773 51.1477 68.587C51.0526 68.3968 50.9155 68.2512 50.7364 68.1505C50.5629 68.0442 50.3614 67.991 50.132 67.991C49.9025 67.991 49.6982 68.0442 49.5191 68.1505C49.34 68.2512 49.2001 68.3996 49.0994 68.5954C48.9987 68.7857 48.9483 69.0152 48.9483 69.2838V71.9618H48.3187ZM54.4322 72.0625C54.1468 72.0625 53.8921 72.0094 53.6683 71.903C53.4444 71.7911 53.2681 71.64 53.1394 71.4497C53.0107 71.2594 52.9463 71.0412 52.9463 70.7949C52.9463 70.5598 52.9967 70.3472 53.0974 70.1569C53.1981 69.961 53.3548 69.7959 53.5675 69.6616C53.7802 69.5273 54.0516 69.4321 54.3818 69.3762L56.1447 69.0823V69.6532L54.5329 69.9218C54.2083 69.9778 53.9733 70.0813 53.8278 70.2324C53.6878 70.3835 53.6179 70.5626 53.6179 70.7697C53.6179 70.9712 53.6962 71.1419 53.8529 71.2818C54.0152 71.4217 54.2223 71.4917 54.4742 71.4917C54.782 71.4917 55.0506 71.4273 55.2801 71.2986C55.5095 71.1643 55.6886 70.9852 55.8173 70.7613C55.9461 70.5375 56.0104 70.2884 56.0104 70.0142V68.8725C56.0104 68.6038 55.9125 68.3856 55.7166 68.2177C55.5207 68.0498 55.2661 67.9658 54.9527 67.9658C54.6784 67.9658 54.4378 68.0358 54.2307 68.1757C54.0236 68.31 53.8697 68.4863 53.769 68.7046L53.1981 68.394C53.2821 68.2037 53.4136 68.0302 53.5927 67.8735C53.7774 67.7168 53.9873 67.5936 54.2223 67.5041C54.4574 67.409 54.7008 67.3614 54.9527 67.3614C55.2829 67.3614 55.5739 67.4257 55.8257 67.5545C56.0832 67.6832 56.2819 67.8623 56.4218 68.0917C56.5673 68.3156 56.64 68.5758 56.64 68.8725V71.9618H56.0104V71.0635L56.1028 71.1559C56.0244 71.3238 55.9013 71.4777 55.7334 71.6176C55.5711 71.7519 55.378 71.8611 55.1541 71.945C54.9359 72.0234 54.6952 72.0625 54.4322 72.0625ZM57.9351 71.9618V67.4621H58.5647V68.3352L58.422 68.3016C58.5339 68.0106 58.7158 67.7811 58.9677 67.6132C59.2251 67.4453 59.5217 67.3614 59.8575 67.3614C60.1765 67.3614 60.462 67.4341 60.7138 67.5797C60.9713 67.7252 61.1727 67.9266 61.3182 68.1841C61.4694 68.4359 61.5449 68.7214 61.5449 69.0404V71.9618H60.9153V69.2838C60.9153 69.0096 60.8649 68.7773 60.7642 68.587C60.669 68.3968 60.5319 68.2512 60.3528 68.1505C60.1793 68.0442 59.9779 67.991 59.7484 67.991C59.5189 67.991 59.3147 68.0442 59.1356 68.1505C58.9565 68.2512 58.8166 68.3996 58.7158 68.5954C58.6151 68.7857 58.5647 69.0152 58.5647 69.2838V71.9618H57.9351ZM62.7474 71.9618V67.4621H63.377V71.9618H62.7474ZM62.7474 66.631V65.7076H63.377V66.631H62.7474ZM66.2608 72.0625C65.9474 72.0625 65.662 71.9898 65.4045 71.8443C65.1471 71.6932 64.9428 71.4861 64.7917 71.223C64.6462 70.9544 64.5734 70.6466 64.5734 70.2996V67.4621H65.203V70.224C65.203 70.4647 65.2506 70.6774 65.3458 70.8621C65.4465 71.0412 65.5836 71.1811 65.7571 71.2818C65.9362 71.3825 66.1405 71.4329 66.3699 71.4329C66.5994 71.4329 66.8037 71.3825 66.9828 71.2818C67.1619 71.1755 67.3018 71.0272 67.4025 70.8369C67.5033 70.641 67.5536 70.4087 67.5536 70.1401V67.4621H68.1832V71.9618H67.5536V71.0887L67.6963 71.1223C67.59 71.4133 67.4081 71.6428 67.1507 71.8107C66.8932 71.9786 66.5966 72.0625 66.2608 72.0625ZM72.9361 72.0625C72.5164 72.0625 72.1386 71.9618 71.8028 71.7603C71.467 71.5532 71.2012 71.2734 71.0053 70.9208C70.815 70.5626 70.7199 70.1597 70.7199 69.712C70.7199 69.2586 70.815 68.8557 71.0053 68.5031C71.2012 68.1505 71.4642 67.8735 71.7944 67.672C72.1302 67.4649 72.5108 67.3614 72.9361 67.3614C73.3223 67.3614 73.6665 67.4453 73.9687 67.6132C74.2709 67.7811 74.5088 68.0078 74.6823 68.2932L74.5815 68.4695V65.6068H75.2112V71.9618H74.5815V70.9544L74.6823 71.0467C74.5256 71.3714 74.2905 71.6232 73.9771 71.8023C73.6693 71.9758 73.3223 72.0625 72.9361 72.0625ZM72.9697 71.4329C73.2719 71.4329 73.5434 71.3574 73.784 71.2063C74.0303 71.0551 74.2234 70.8509 74.3633 70.5934C74.5088 70.3304 74.5815 70.0366 74.5815 69.712C74.5815 69.3874 74.5088 69.0963 74.3633 68.8389C74.2234 68.5758 74.0303 68.3688 73.784 68.2177C73.5434 68.0666 73.2719 67.991 72.9697 67.991C72.6731 67.991 72.4045 68.0666 72.1638 68.2177C71.9231 68.3688 71.7329 68.573 71.5929 68.8305C71.4586 69.0879 71.3915 69.3818 71.3915 69.712C71.3915 70.0366 71.4586 70.3304 71.5929 70.5934C71.7329 70.8509 71.9204 71.0551 72.1554 71.2063C72.3961 71.3574 72.6675 71.4329 72.9697 71.4329ZM78.611 72.0625C78.1857 72.0625 77.7995 71.9618 77.4525 71.7603C77.1055 71.5532 76.8285 71.2734 76.6214 70.9208C76.42 70.5626 76.3192 70.1569 76.3192 69.7036C76.3192 69.2558 76.42 68.8557 76.6214 68.5031C76.8229 68.1505 77.0943 67.8735 77.4357 67.672C77.7827 67.4649 78.1745 67.3614 78.611 67.3614C79.0476 67.3614 79.4365 67.4621 79.7779 67.6636C80.1249 67.8651 80.3963 68.1421 80.5922 68.4947C80.7937 68.8473 80.8944 69.2502 80.8944 69.7036C80.8944 70.1625 80.7909 70.571 80.5838 70.9292C80.3768 71.2818 80.0997 71.5588 79.7527 71.7603C79.4113 71.9618 79.0308 72.0625 78.611 72.0625ZM78.611 71.4329C78.9132 71.4329 79.1847 71.3574 79.4253 71.2063C79.6716 71.0551 79.8647 70.8481 80.0046 70.585C80.1501 70.322 80.2228 70.0282 80.2228 69.7036C80.2228 69.379 80.1501 69.0879 80.0046 68.8305C79.8647 68.573 79.6716 68.3688 79.4253 68.2177C79.1847 68.0666 78.9132 67.991 78.611 67.991C78.3088 67.991 78.0346 68.0666 77.7883 68.2177C77.5477 68.3688 77.3546 68.573 77.2091 68.8305C77.0636 69.0879 76.9908 69.379 76.9908 69.7036C76.9908 70.0282 77.0636 70.322 77.2091 70.585C77.3546 70.8481 77.5477 71.0551 77.7883 71.2063C78.0346 71.3574 78.3088 71.4329 78.611 71.4329ZM83.2718 71.9618V71.542L85.018 69.6196C85.3594 69.2446 85.6364 68.934 85.8491 68.6878C86.0673 68.4415 86.2296 68.2177 86.336 68.0162C86.4423 67.8147 86.4955 67.5964 86.4955 67.3614C86.4955 66.9864 86.3863 66.6982 86.1681 66.4967C85.9498 66.2952 85.6588 66.1945 85.295 66.1945C84.92 66.1945 84.6038 66.3008 84.3464 66.5135C84.0945 66.7262 83.9238 67.0228 83.8343 67.4034L83.2215 67.269C83.2942 66.9276 83.4257 66.6338 83.616 66.3876C83.8063 66.1413 84.0442 65.951 84.3296 65.8167C84.615 65.6768 84.934 65.6068 85.2866 65.6068C85.6616 65.6068 85.989 65.6824 86.2688 65.8335C86.5487 65.9846 86.7669 66.1917 86.9236 66.4547C87.0859 66.7178 87.1671 67.02 87.1671 67.3614C87.1671 67.5964 87.1167 67.8231 87.016 68.0414C86.9208 68.2596 86.7753 68.4947 86.5794 68.7465C86.3836 68.9984 86.1317 69.2922 85.8239 69.628L84.2373 71.3741H87.335V71.9618H83.2718ZM90.4546 72.0625C90.0516 72.0625 89.6907 71.9814 89.3717 71.8191C89.0582 71.6512 88.8092 71.4245 88.6245 71.1391C88.4454 70.8481 88.3559 70.5207 88.3559 70.1569C88.3559 69.7595 88.4678 69.4041 88.6917 69.0907C88.9211 68.7773 89.2289 68.5591 89.6151 68.4359V68.6122C89.3185 68.4835 89.089 68.2932 88.9267 68.0414C88.7644 67.7839 88.6833 67.5097 88.6833 67.2187C88.6833 66.9109 88.7616 66.6366 88.9183 66.396C89.075 66.1553 89.2849 65.965 89.5479 65.8251C89.8166 65.6796 90.1188 65.6068 90.4546 65.6068C90.796 65.6068 91.0982 65.6768 91.3612 65.8167C91.6243 65.951 91.8314 66.1413 91.9825 66.3876C92.1392 66.6282 92.2175 66.9053 92.2175 67.2187C92.2175 67.5321 92.1336 67.8119 91.9657 68.0582C91.7978 68.2988 91.5767 68.4835 91.3025 68.6122L91.2941 68.4359C91.6803 68.5591 91.9853 68.7773 92.2091 69.0907C92.4386 69.4041 92.5533 69.7595 92.5533 70.1569C92.5533 70.5207 92.461 70.8481 92.2763 71.1391C92.0972 71.4245 91.8482 71.6512 91.5291 71.8191C91.2157 71.9814 90.8576 72.0625 90.4546 72.0625ZM90.4546 71.4749C90.74 71.4749 90.9891 71.4217 91.2017 71.3154C91.4144 71.2035 91.5795 71.0495 91.697 70.8537C91.8202 70.6522 91.8817 70.4199 91.8817 70.1569C91.8817 69.8938 91.8202 69.6644 91.697 69.4685C91.5795 69.267 91.4144 69.1131 91.2017 69.0068C90.9891 68.8949 90.74 68.8389 90.4546 68.8389C90.1692 68.8389 89.9173 68.8949 89.6991 69.0068C89.4864 69.1131 89.3213 69.267 89.2038 69.4685C89.0862 69.6644 89.0275 69.8938 89.0275 70.1569C89.0275 70.4199 89.0862 70.6522 89.2038 70.8537C89.3213 71.0495 89.4864 71.2035 89.6991 71.3154C89.9173 71.4217 90.1692 71.4749 90.4546 71.4749ZM90.4546 68.2512C90.6617 68.2512 90.8464 68.2093 91.0087 68.1253C91.171 68.0358 91.2997 67.9154 91.3948 67.7643C91.4956 67.6076 91.5459 67.4257 91.5459 67.2187C91.5459 67.0116 91.4956 66.8325 91.3948 66.6814C91.2997 66.5303 91.171 66.4128 91.0087 66.3288C90.8464 66.2393 90.6617 66.1945 90.4546 66.1945C90.2475 66.1945 90.06 66.2393 89.8921 66.3288C89.7298 66.4128 89.5983 66.5303 89.4976 66.6814C89.4024 66.8325 89.3549 67.0116 89.3549 67.2187C89.3549 67.4257 89.4024 67.6076 89.4976 67.7643C89.5983 67.9154 89.7298 68.0358 89.8921 68.1253C90.06 68.2093 90.2475 68.2512 90.4546 68.2512ZM97.5974 72.0625C97.1049 72.0625 96.6712 71.9282 96.2962 71.6596C95.9268 71.3853 95.6386 71.0076 95.4315 70.5263C95.2245 70.0394 95.1209 69.4741 95.1209 68.8305C95.1209 68.1869 95.2245 67.6244 95.4315 67.1431C95.6386 66.6562 95.9268 66.2784 96.2962 66.0098C96.6656 65.7412 97.0965 65.6068 97.589 65.6068C98.0815 65.6068 98.5125 65.7412 98.8818 66.0098C99.2512 66.2784 99.5394 66.6562 99.7465 67.1431C99.9536 67.6244 100.057 68.1869 100.057 68.8305C100.057 69.4741 99.9536 70.0394 99.7465 70.5263C99.545 71.0132 99.2596 71.3909 98.8902 71.6596C98.5209 71.9282 98.0899 72.0625 97.5974 72.0625ZM97.5974 71.4329C97.9556 71.4329 98.269 71.3238 98.5376 71.1055C98.8063 70.8872 99.0162 70.585 99.1673 70.1989C99.3184 69.8071 99.3939 69.351 99.3939 68.8305C99.3939 68.31 99.3184 67.8567 99.1673 67.4705C99.0162 67.0788 98.8063 66.7765 98.5376 66.5639C98.269 66.3456 97.9528 66.2365 97.589 66.2365C97.2308 66.2365 96.9174 66.3456 96.6488 66.5639C96.3802 66.7765 96.1703 67.0788 96.0192 67.4705C95.8681 67.8567 95.7925 68.31 95.7925 68.8305C95.7925 69.3454 95.8681 69.7987 96.0192 70.1905C96.1703 70.5822 96.3802 70.8872 96.6488 71.1055C96.923 71.3238 97.2392 71.4329 97.5974 71.4329ZM103.746 72.0625C103.254 72.0625 102.82 71.9282 102.445 71.6596C102.075 71.3853 101.787 71.0076 101.58 70.5263C101.373 70.0394 101.27 69.4741 101.27 68.8305C101.27 68.1869 101.373 67.6244 101.58 67.1431C101.787 66.6562 102.075 66.2784 102.445 66.0098C102.814 65.7412 103.245 65.6068 103.738 65.6068C104.23 65.6068 104.661 65.7412 105.03 66.0098C105.4 66.2784 105.688 66.6562 105.895 67.1431C106.102 67.6244 106.206 68.1869 106.206 68.8305C106.206 69.4741 106.102 70.0394 105.895 70.5263C105.694 71.0132 105.408 71.3909 105.039 71.6596C104.669 71.9282 104.239 72.0625 103.746 72.0625ZM103.746 71.4329C104.104 71.4329 104.418 71.3238 104.686 71.1055C104.955 70.8872 105.165 70.585 105.316 70.1989C105.467 69.8071 105.543 69.351 105.543 68.8305C105.543 68.31 105.467 67.8567 105.316 67.4705C105.165 67.0788 104.955 66.7765 104.686 66.5639C104.418 66.3456 104.101 66.2365 103.738 66.2365C103.379 66.2365 103.066 66.3456 102.797 66.5639C102.529 66.7765 102.319 67.0788 102.168 67.4705C102.017 67.8567 101.941 68.31 101.941 68.8305C101.941 69.3454 102.017 69.7987 102.168 70.1905C102.319 70.5822 102.529 70.8872 102.797 71.1055C103.072 71.3238 103.388 71.4329 103.746 71.4329ZM109.895 72.0625C109.402 72.0625 108.968 71.9282 108.593 71.6596C108.224 71.3853 107.936 71.0076 107.729 70.5263C107.522 70.0394 107.418 69.4741 107.418 68.8305C107.418 68.1869 107.522 67.6244 107.729 67.1431C107.936 66.6562 108.224 66.2784 108.593 66.0098C108.963 65.7412 109.394 65.6068 109.886 65.6068C110.379 65.6068 110.81 65.7412 111.179 66.0098C111.548 66.2784 111.837 66.6562 112.044 67.1431C112.251 67.6244 112.354 68.1869 112.354 68.8305C112.354 69.4741 112.251 70.0394 112.044 70.5263C111.842 71.0132 111.557 71.3909 111.187 71.6596C110.818 71.9282 110.387 72.0625 109.895 72.0625ZM109.895 71.4329C110.253 71.4329 110.566 71.3238 110.835 71.1055C111.104 70.8872 111.313 70.585 111.464 70.1989C111.616 69.8071 111.691 69.351 111.691 68.8305C111.691 68.31 111.616 67.8567 111.464 67.4705C111.313 67.0788 111.104 66.7765 110.835 66.5639C110.566 66.3456 110.25 66.2365 109.886 66.2365C109.528 66.2365 109.215 66.3456 108.946 66.5639C108.677 66.7765 108.468 67.0788 108.316 67.4705C108.165 67.8567 108.09 68.31 108.09 68.8305C108.09 69.3454 108.165 69.7987 108.316 70.1905C108.468 70.5822 108.677 70.8872 108.946 71.1055C109.22 71.3238 109.536 71.4329 109.895 71.4329ZM116.026 71.9618L114.481 67.4621H115.195L116.471 71.3993H116.219L117.419 67.4621H118.049L119.249 71.3993H118.998L120.282 67.4621H120.987L119.443 71.9618H118.813L117.646 68.1085H117.822L116.655 71.9618H116.026ZM122.69 71.9618V71.4161L125.401 67.8483L125.519 68.0917H122.832V67.4621H126.073V68.0078L123.37 71.5756L123.252 71.3322H126.09V71.9618H122.69ZM128.971 72.0625C128.551 72.0625 128.171 71.9618 127.829 71.7603C127.493 71.5532 127.228 71.2706 127.032 70.9124C126.836 70.5542 126.738 70.1485 126.738 69.6952C126.738 69.2418 126.833 68.8417 127.023 68.4947C127.214 68.1421 127.471 67.8651 127.796 67.6636C128.126 67.4621 128.495 67.3614 128.904 67.3614C129.228 67.3614 129.517 67.4229 129.768 67.5461C130.026 67.6636 130.244 67.8259 130.423 68.033C130.602 68.2345 130.739 68.4639 130.835 68.7214C130.93 68.9732 130.977 69.2334 130.977 69.5021C130.977 69.5581 130.974 69.6224 130.969 69.6952C130.963 69.7623 130.955 69.8323 130.944 69.905H127.141V69.3174H130.583L130.28 69.5692C130.331 69.2614 130.294 68.9872 130.171 68.7465C130.054 68.5003 129.883 68.3072 129.659 68.1673C129.435 68.0218 129.184 67.949 128.904 67.949C128.624 67.949 128.364 68.0218 128.123 68.1673C127.888 68.3128 127.703 68.5171 127.569 68.7801C127.435 69.0376 127.381 69.3454 127.409 69.7036C127.381 70.0617 127.437 70.3752 127.577 70.6438C127.723 70.9068 127.919 71.1111 128.165 71.2566C128.417 71.4021 128.685 71.4749 128.971 71.4749C129.301 71.4749 129.578 71.3965 129.802 71.2398C130.026 71.0831 130.208 70.8872 130.348 70.6522L130.885 70.9376C130.795 71.1391 130.658 71.3266 130.474 71.5001C130.289 71.668 130.068 71.8051 129.81 71.9114C129.559 72.0122 129.279 72.0625 128.971 72.0625ZM133.649 72.0625C133.218 72.0625 132.84 71.9534 132.515 71.7351C132.191 71.5169 131.956 71.2202 131.81 70.8453L132.339 70.5934C132.468 70.8677 132.647 71.0859 132.876 71.2482C133.112 71.4105 133.369 71.4917 133.649 71.4917C133.917 71.4917 134.144 71.4273 134.329 71.2986C134.513 71.1643 134.606 70.9908 134.606 70.7781C134.606 70.6214 134.561 70.4983 134.472 70.4087C134.382 70.3136 134.278 70.2408 134.161 70.1905C134.043 70.1401 133.94 70.1037 133.85 70.0813L133.204 69.8966C132.79 69.7791 132.49 69.614 132.306 69.4013C132.121 69.1887 132.029 68.9424 132.029 68.6626C132.029 68.3996 132.096 68.1701 132.23 67.9742C132.364 67.7783 132.546 67.6272 132.776 67.5209C133.005 67.4146 133.26 67.3614 133.54 67.3614C133.92 67.3614 134.264 67.4621 134.572 67.6636C134.886 67.8595 135.107 68.1337 135.235 68.4863L134.698 68.7381C134.586 68.4863 134.424 68.2904 134.211 68.1505C134.004 68.005 133.772 67.9322 133.514 67.9322C133.263 67.9322 133.061 67.9966 132.91 68.1253C132.759 68.254 132.683 68.4163 132.683 68.6122C132.683 68.7633 132.723 68.8837 132.801 68.9732C132.879 69.0628 132.969 69.1299 133.07 69.1747C133.176 69.2195 133.268 69.253 133.347 69.2754L134.094 69.4937C134.458 69.6 134.74 69.7651 134.942 69.989C135.149 70.2129 135.252 70.4759 135.252 70.7781C135.252 71.0244 135.182 71.2454 135.042 71.4413C134.908 71.6372 134.721 71.7911 134.48 71.903C134.239 72.0094 133.962 72.0625 133.649 72.0625ZM135.897 71.9618V71.4161L138.608 67.8483L138.726 68.0917H136.04V67.4621H139.28V68.0078L136.577 71.5756L136.459 71.3322H139.297V71.9618H135.897ZM139.802 69.6952V69.0068L141.985 67.6552V68.3436L139.802 69.6952ZM140.583 71.9618V65.6068H141.213V71.9618H140.583ZM143.05 73.8087C142.961 73.8087 142.869 73.8003 142.773 73.7835C142.684 73.7723 142.594 73.7499 142.505 73.7163V73.1287C142.561 73.1343 142.631 73.1427 142.715 73.1539C142.804 73.1707 142.894 73.1791 142.983 73.1791C143.258 73.1791 143.467 73.1203 143.613 73.0028C143.758 72.8908 143.901 72.6726 144.041 72.348L144.326 71.6764L144.31 72.2304L142.404 67.4621H143.084L144.645 71.3993H144.469L146.022 67.4621H146.719L144.662 72.5326C144.573 72.7509 144.458 72.958 144.318 73.1539C144.184 73.3497 144.013 73.5065 143.806 73.624C143.599 73.7471 143.347 73.8087 143.05 73.8087ZM147.459 71.9618V67.4621H148.089V68.3184L147.988 68.1925C148.111 67.9294 148.293 67.7252 148.533 67.5797C148.78 67.4341 149.048 67.3614 149.339 67.3614C149.686 67.3614 150 67.4593 150.28 67.6552C150.559 67.8511 150.758 68.1057 150.876 68.4191L150.699 68.4275C150.811 68.0805 151.004 67.8175 151.279 67.6384C151.558 67.4537 151.866 67.3614 152.202 67.3614C152.504 67.3614 152.781 67.4341 153.033 67.5797C153.291 67.7252 153.495 67.9266 153.646 68.1841C153.803 68.4359 153.881 68.7214 153.881 69.0404V71.9618H153.251V69.2838C153.251 69.0096 153.201 68.7773 153.1 68.587C153.005 68.3968 152.874 68.2512 152.706 68.1505C152.538 68.0442 152.345 67.991 152.126 67.991C151.914 67.991 151.721 68.0442 151.547 68.1505C151.374 68.2512 151.237 68.3996 151.136 68.5954C151.035 68.7857 150.985 69.0152 150.985 69.2838V71.9618H150.355V69.2838C150.355 69.0096 150.305 68.7773 150.204 68.587C150.109 68.3968 149.977 68.2512 149.809 68.1505C149.642 68.0442 149.448 67.991 149.23 67.991C149.012 67.991 148.816 68.0442 148.643 68.1505C148.475 68.2512 148.34 68.3996 148.24 68.5954C148.139 68.7857 148.089 69.0152 148.089 69.2838V71.9618H147.459ZM158.231 72.0122C157.828 72.0122 157.517 71.8946 157.299 71.6596C157.08 71.4245 156.971 71.0887 156.971 70.6522V68.0917H156.14V67.4621H156.35C156.54 67.4621 156.692 67.4006 156.803 67.2774C156.915 67.1487 156.971 66.9892 156.971 66.7989V66.4212H157.601V67.4621H158.592V68.0917H157.601V70.6522C157.601 70.8033 157.623 70.9376 157.668 71.0551C157.713 71.1671 157.788 71.2566 157.895 71.3238C158.007 71.3909 158.155 71.4245 158.34 71.4245C158.385 71.4245 158.438 71.4217 158.499 71.4161C158.561 71.4105 158.614 71.4049 158.659 71.3993V71.9618C158.592 71.9786 158.516 71.9898 158.432 71.9954C158.348 72.0066 158.281 72.0122 158.231 72.0122ZM159.857 73.8087C159.767 73.8087 159.675 73.8003 159.58 73.7835C159.49 73.7723 159.401 73.7499 159.311 73.7163V73.1287C159.367 73.1343 159.437 73.1427 159.521 73.1539C159.61 73.1707 159.7 73.1791 159.789 73.1791C160.064 73.1791 160.274 73.1203 160.419 73.0028C160.565 72.8908 160.707 72.6726 160.847 72.348L161.133 71.6764L161.116 72.2304L159.21 67.4621H159.89L161.452 71.3993H161.275L162.828 67.4621H163.525L161.468 72.5326C161.379 72.7509 161.264 72.958 161.124 73.1539C160.99 73.3497 160.819 73.5065 160.612 73.624C160.405 73.7471 160.153 73.8087 159.857 73.8087ZM166.315 73.8087C166.008 73.8087 165.722 73.7611 165.459 73.666C165.202 73.5708 164.978 73.4393 164.788 73.2714C164.603 73.1091 164.46 72.9188 164.359 72.7005L164.939 72.3899C165.028 72.6026 165.188 72.7873 165.417 72.944C165.647 73.1007 165.94 73.1791 166.299 73.1791C166.573 73.1791 166.825 73.1259 167.054 73.0196C167.284 72.9132 167.468 72.7565 167.608 72.5494C167.748 72.3424 167.818 72.0877 167.818 71.7855V70.7865L167.919 70.8788C167.762 71.2035 167.53 71.4553 167.222 71.6344C166.914 71.8079 166.578 71.8946 166.215 71.8946C165.795 71.8946 165.417 71.7939 165.081 71.5924C164.746 71.3909 164.48 71.1195 164.284 70.7781C164.094 70.4311 163.998 70.0478 163.998 69.628C163.998 69.2027 164.094 68.8193 164.284 68.4779C164.48 68.1365 164.743 67.8651 165.073 67.6636C165.409 67.4621 165.789 67.3614 166.215 67.3614C166.578 67.3614 166.909 67.4453 167.205 67.6132C167.507 67.7811 167.745 68.0078 167.919 68.2932L167.818 68.4695V67.4621H168.448V71.7855C168.448 72.1717 168.355 72.5159 168.171 72.8181C167.992 73.1259 167.74 73.3665 167.415 73.54C167.096 73.7191 166.73 73.8087 166.315 73.8087ZM166.248 71.265C166.539 71.265 166.802 71.1923 167.037 71.0467C167.272 70.8956 167.46 70.697 167.6 70.4507C167.745 70.1989 167.818 69.9246 167.818 69.628C167.818 69.3314 167.745 69.06 167.6 68.8137C167.46 68.5619 167.272 68.3632 167.037 68.2177C166.802 68.0666 166.539 67.991 166.248 67.991C165.952 67.991 165.683 68.0666 165.442 68.2177C165.202 68.3632 165.011 68.5591 164.871 68.8053C164.737 69.0516 164.67 69.3258 164.67 69.628C164.67 69.9246 164.737 70.1989 164.871 70.4507C165.011 70.697 165.199 70.8956 165.434 71.0467C165.675 71.1923 165.946 71.265 166.248 71.265ZM171.849 72.0625C171.423 72.0625 171.037 71.9618 170.69 71.7603C170.343 71.5532 170.066 71.2734 169.859 70.9208C169.658 70.5626 169.557 70.1569 169.557 69.7036C169.557 69.2558 169.658 68.8557 169.859 68.5031C170.06 68.1505 170.332 67.8735 170.673 67.672C171.02 67.4649 171.412 67.3614 171.849 67.3614C172.285 67.3614 172.674 67.4621 173.015 67.6636C173.362 67.8651 173.634 68.1421 173.83 68.4947C174.031 68.8473 174.132 69.2502 174.132 69.7036C174.132 70.1625 174.028 70.571 173.821 70.9292C173.614 71.2818 173.337 71.5588 172.99 71.7603C172.649 71.9618 172.268 72.0625 171.849 72.0625ZM171.849 71.4329C172.151 71.4329 172.422 71.3574 172.663 71.2063C172.909 71.0551 173.102 70.8481 173.242 70.585C173.388 70.322 173.46 70.0282 173.46 69.7036C173.46 69.379 173.388 69.0879 173.242 68.8305C173.102 68.573 172.909 68.3688 172.663 68.2177C172.422 68.0666 172.151 67.991 171.849 67.991C171.546 67.991 171.272 68.0666 171.026 68.2177C170.785 68.3688 170.592 68.573 170.447 68.8305C170.301 69.0879 170.228 69.379 170.228 69.7036C170.228 70.0282 170.301 70.322 170.447 70.585C170.592 70.8481 170.785 71.0551 171.026 71.2063C171.272 71.3574 171.546 71.4329 171.849 71.4329ZM177.274 72.0625C176.854 72.0625 176.476 71.9618 176.141 71.7603C175.805 71.5532 175.539 71.2734 175.343 70.9208C175.153 70.5626 175.058 70.1597 175.058 69.712C175.058 69.2586 175.153 68.8557 175.343 68.5031C175.539 68.1505 175.802 67.8735 176.132 67.672C176.468 67.4649 176.849 67.3614 177.274 67.3614C177.66 67.3614 178.004 67.4453 178.307 67.6132C178.609 67.7811 178.847 68.0078 179.02 68.2932L178.919 68.4695V65.6068H179.549V71.9618H178.919V70.9544L179.02 71.0467C178.863 71.3714 178.628 71.6232 178.315 71.8023C178.007 71.9758 177.66 72.0625 177.274 72.0625ZM177.308 71.4329C177.61 71.4329 177.881 71.3574 178.122 71.2063C178.368 71.0551 178.561 70.8509 178.701 70.5934C178.847 70.3304 178.919 70.0366 178.919 69.712C178.919 69.3874 178.847 69.0963 178.701 68.8389C178.561 68.5758 178.368 68.3688 178.122 68.2177C177.881 68.0666 177.61 67.991 177.308 67.991C177.011 67.991 176.742 68.0666 176.502 68.2177C176.261 68.3688 176.071 68.573 175.931 68.8305C175.796 69.0879 175.729 69.3818 175.729 69.712C175.729 70.0366 175.796 70.3304 175.931 70.5934C176.071 70.8509 176.258 71.0551 176.493 71.2063C176.734 71.3574 177.005 71.4329 177.308 71.4329ZM180.842 71.9618V67.4621H181.471V68.3352L181.329 68.3016C181.441 68.0106 181.622 67.7811 181.874 67.6132C182.132 67.4453 182.428 67.3614 182.764 67.3614C183.083 67.3614 183.369 67.4341 183.62 67.5797C183.878 67.7252 184.079 67.9266 184.225 68.1841C184.376 68.4359 184.452 68.7214 184.452 69.0404V71.9618H183.822V69.2838C183.822 69.0096 183.772 68.7773 183.671 68.587C183.576 68.3968 183.439 68.2512 183.259 68.1505C183.086 68.0442 182.885 67.991 182.655 67.991C182.426 67.991 182.221 68.0442 182.042 68.1505C181.863 68.2512 181.723 68.3996 181.622 68.5954C181.522 68.7857 181.471 69.0152 181.471 69.2838V71.9618H180.842ZM185.654 71.9618V67.4621H186.284V71.9618H185.654ZM185.654 66.631V65.7076H186.284V66.631H185.654ZM189.167 72.0625C188.854 72.0625 188.569 71.9898 188.311 71.8443C188.054 71.6932 187.849 71.4861 187.698 71.223C187.553 70.9544 187.48 70.6466 187.48 70.2996V67.4621H188.11V70.224C188.11 70.4647 188.157 70.6774 188.252 70.8621C188.353 71.0412 188.49 71.1811 188.664 71.2818C188.843 71.3825 189.047 71.4329 189.277 71.4329C189.506 71.4329 189.71 71.3825 189.889 71.2818C190.069 71.1755 190.208 71.0272 190.309 70.8369C190.41 70.641 190.46 70.4087 190.46 70.1401V67.4621H191.09V71.9618H190.46V71.0887L190.603 71.1223C190.497 71.4133 190.315 71.6428 190.057 71.8107C189.8 71.9786 189.503 72.0625 189.167 72.0625Z" fill="#1F1A17"/>
<path d="M82.5514 49.4561V47.2625H80.3579V46.1711H82.5514V43.9994H83.6428V46.1711H85.8145V47.2625H83.6428V49.4561H82.5514ZM88.5058 49.4561V42.4169H86.9452V41.3256H89.7827V49.4561H88.5058ZM91.4044 49.4561V48.5284L93.6307 46.1493C94.0673 45.6837 94.4092 45.309 94.6566 45.0252C94.9112 44.7342 95.0931 44.4796 95.2023 44.2613C95.3187 44.043 95.3769 43.8138 95.3769 43.5737C95.3769 43.1809 95.2568 42.8789 95.0167 42.6679C94.7766 42.4497 94.4674 42.3405 94.0891 42.3405C93.6962 42.3405 93.3579 42.4533 93.0742 42.6788C92.7904 42.8971 92.594 43.2172 92.4848 43.6392L91.3498 43.3118C91.4372 42.8826 91.6118 42.5115 91.8737 42.1987C92.1356 41.8785 92.4557 41.6312 92.8341 41.4565C93.2197 41.2819 93.6344 41.1946 94.0782 41.1946C94.5948 41.1946 95.0458 41.2928 95.4314 41.4893C95.8171 41.6785 96.1154 41.944 96.3263 42.286C96.5446 42.6279 96.6537 43.0244 96.6537 43.4755C96.6537 43.7738 96.5955 44.0648 96.4791 44.3486C96.37 44.6251 96.199 44.9197 95.9662 45.2326C95.7334 45.5382 95.4351 45.8837 95.0713 46.2693L93.1069 48.3647H96.8065V49.4561H91.4044ZM98.9964 49.4561L105.61 41.3256H106.985L100.371 49.4561H98.9964ZM100.24 45.4508C99.8403 45.4508 99.4802 45.3563 99.1601 45.1671C98.8399 44.9707 98.5817 44.7124 98.3852 44.3922C98.1961 44.0721 98.1015 43.7156 98.1015 43.3227C98.1015 42.9299 98.1961 42.5734 98.3852 42.2532C98.5817 41.9258 98.8399 41.6675 99.1601 41.4784C99.4802 41.2892 99.8403 41.1946 100.24 41.1946C100.641 41.1946 101.001 41.2892 101.321 41.4784C101.641 41.6675 101.896 41.9258 102.085 42.2532C102.274 42.5734 102.369 42.9299 102.369 43.3227C102.369 43.7156 102.274 44.0721 102.085 44.3922C101.896 44.7124 101.641 44.9707 101.321 45.1671C101.001 45.3563 100.641 45.4508 100.24 45.4508ZM100.24 44.4577C100.466 44.4577 100.659 44.4032 100.819 44.294C100.986 44.1849 101.114 44.043 101.201 43.8684C101.288 43.6938 101.332 43.5119 101.332 43.3227C101.332 43.1263 101.288 42.9444 101.201 42.7771C101.114 42.6025 100.986 42.4606 100.819 42.3514C100.659 42.2423 100.466 42.1877 100.24 42.1877C100.022 42.1877 99.8294 42.2423 99.6621 42.3514C99.4947 42.4606 99.3638 42.6025 99.2692 42.7771C99.1819 42.9444 99.1382 43.1263 99.1382 43.3227C99.1382 43.5119 99.1819 43.6938 99.2692 43.8684C99.3638 44.043 99.4947 44.1849 99.6621 44.294C99.8294 44.4032 100.022 44.4577 100.24 44.4577ZM105.686 49.587C105.286 49.587 104.922 49.4924 104.595 49.3033C104.275 49.1068 104.02 48.8485 103.831 48.5284C103.642 48.2083 103.547 47.8518 103.547 47.4589C103.547 47.066 103.642 46.7095 103.831 46.3894C104.02 46.062 104.275 45.8037 104.595 45.6145C104.922 45.4254 105.286 45.3308 105.686 45.3308C106.086 45.3308 106.447 45.4254 106.767 45.6145C107.087 45.8037 107.341 46.062 107.531 46.3894C107.72 46.7095 107.814 47.066 107.814 47.4589C107.814 47.8518 107.72 48.2083 107.531 48.5284C107.341 48.8485 107.087 49.1068 106.767 49.3033C106.447 49.4924 106.086 49.587 105.686 49.587ZM105.686 48.5939C105.912 48.5939 106.105 48.5393 106.265 48.4302C106.425 48.3211 106.548 48.1792 106.636 48.0046C106.73 47.83 106.778 47.6481 106.778 47.4589C106.778 47.2625 106.73 47.0806 106.636 46.9132C106.548 46.7386 106.425 46.5967 106.265 46.4876C106.105 46.3785 105.912 46.3239 105.686 46.3239C105.468 46.3239 105.275 46.3785 105.108 46.4876C104.941 46.5967 104.81 46.7386 104.715 46.9132C104.628 47.0806 104.584 47.2625 104.584 47.4589C104.584 47.6481 104.628 47.83 104.715 48.0046C104.81 48.1792 104.941 48.3211 105.108 48.4302C105.275 48.5393 105.468 48.5939 105.686 48.5939Z" fill="#64CA71"/>
</svg>
